%TF.GenerationSoftware,KiCad,Pcbnew,10.0.2*%
%TF.CreationDate,2026-06-04T11:42:37+05:30*%
%TF.ProjectId,esp32-laser-security,65737033-322d-46c6-9173-65722d736563,rev?*%
%TF.SameCoordinates,Original*%
%TF.FileFunction,Legend,Top*%
%TF.FilePolarity,Positive*%
%FSLAX46Y46*%
G04 Gerber Fmt 4.6, Leading zero omitted, Abs format (unit mm)*
G04 Created by KiCad (PCBNEW 10.0.2) date 2026-06-04 11:42:37*
%MOMM*%
%LPD*%
G01*
G04 APERTURE LIST*
%ADD10C,0.150000*%
%ADD11C,0.120000*%
G04 APERTURE END LIST*
D10*
X1006476189Y92295180D02*
X1006142856Y92771371D01*
X1005904761Y92295180D02*
X1005904761Y93295180D01*
X1005904761Y93295180D02*
X1006285713Y93295180D01*
X1006285713Y93295180D02*
X1006380951Y93247561D01*
X1006380951Y93247561D02*
X1006428570Y93199942D01*
X1006428570Y93199942D02*
X1006476189Y93104704D01*
X1006476189Y93104704D02*
X1006476189Y92961847D01*
X1006476189Y92961847D02*
X1006428570Y92866609D01*
X1006428570Y92866609D02*
X1006380951Y92818990D01*
X1006380951Y92818990D02*
X1006285713Y92771371D01*
X1006285713Y92771371D02*
X1005904761Y92771371D01*
X1007285713Y92342800D02*
X1007190475Y92295180D01*
X1007190475Y92295180D02*
X1006999999Y92295180D01*
X1006999999Y92295180D02*
X1006904761Y92342800D01*
X1006904761Y92342800D02*
X1006857142Y92438038D01*
X1006857142Y92438038D02*
X1006857142Y92818990D01*
X1006857142Y92818990D02*
X1006904761Y92914228D01*
X1006904761Y92914228D02*
X1006999999Y92961847D01*
X1006999999Y92961847D02*
X1007190475Y92961847D01*
X1007190475Y92961847D02*
X1007285713Y92914228D01*
X1007285713Y92914228D02*
X1007333332Y92818990D01*
X1007333332Y92818990D02*
X1007333332Y92723752D01*
X1007333332Y92723752D02*
X1006857142Y92628514D01*
X1007714285Y92342800D02*
X1007809523Y92295180D01*
X1007809523Y92295180D02*
X1007999999Y92295180D01*
X1007999999Y92295180D02*
X1008095237Y92342800D01*
X1008095237Y92342800D02*
X1008142856Y92438038D01*
X1008142856Y92438038D02*
X1008142856Y92485657D01*
X1008142856Y92485657D02*
X1008095237Y92580895D01*
X1008095237Y92580895D02*
X1007999999Y92628514D01*
X1007999999Y92628514D02*
X1007857142Y92628514D01*
X1007857142Y92628514D02*
X1007761904Y92676133D01*
X1007761904Y92676133D02*
X1007714285Y92771371D01*
X1007714285Y92771371D02*
X1007714285Y92818990D01*
X1007714285Y92818990D02*
X1007761904Y92914228D01*
X1007761904Y92914228D02*
X1007857142Y92961847D01*
X1007857142Y92961847D02*
X1007999999Y92961847D01*
X1007999999Y92961847D02*
X1008095237Y92914228D01*
X1008952380Y92342800D02*
X1008857142Y92295180D01*
X1008857142Y92295180D02*
X1008666666Y92295180D01*
X1008666666Y92295180D02*
X1008571428Y92342800D01*
X1008571428Y92342800D02*
X1008523809Y92438038D01*
X1008523809Y92438038D02*
X1008523809Y92818990D01*
X1008523809Y92818990D02*
X1008571428Y92914228D01*
X1008571428Y92914228D02*
X1008666666Y92961847D01*
X1008666666Y92961847D02*
X1008857142Y92961847D01*
X1008857142Y92961847D02*
X1008952380Y92914228D01*
X1008952380Y92914228D02*
X1008999999Y92818990D01*
X1008999999Y92818990D02*
X1008999999Y92723752D01*
X1008999999Y92723752D02*
X1008523809Y92628514D01*
X1009285714Y92961847D02*
X1009666666Y92961847D01*
X1009428571Y93295180D02*
X1009428571Y92438038D01*
X1009428571Y92438038D02*
X1009476190Y92342800D01*
X1009476190Y92342800D02*
X1009571428Y92295180D01*
X1009571428Y92295180D02*
X1009666666Y92295180D01*
X1009761905Y92199942D02*
X1010523809Y92199942D01*
X1011095238Y92818990D02*
X1011238095Y92771371D01*
X1011238095Y92771371D02*
X1011285714Y92723752D01*
X1011285714Y92723752D02*
X1011333333Y92628514D01*
X1011333333Y92628514D02*
X1011333333Y92485657D01*
X1011333333Y92485657D02*
X1011285714Y92390419D01*
X1011285714Y92390419D02*
X1011238095Y92342800D01*
X1011238095Y92342800D02*
X1011142857Y92295180D01*
X1011142857Y92295180D02*
X1010761905Y92295180D01*
X1010761905Y92295180D02*
X1010761905Y93295180D01*
X1010761905Y93295180D02*
X1011095238Y93295180D01*
X1011095238Y93295180D02*
X1011190476Y93247561D01*
X1011190476Y93247561D02*
X1011238095Y93199942D01*
X1011238095Y93199942D02*
X1011285714Y93104704D01*
X1011285714Y93104704D02*
X1011285714Y93009466D01*
X1011285714Y93009466D02*
X1011238095Y92914228D01*
X1011238095Y92914228D02*
X1011190476Y92866609D01*
X1011190476Y92866609D02*
X1011095238Y92818990D01*
X1011095238Y92818990D02*
X1010761905Y92818990D01*
X1012190476Y92961847D02*
X1012190476Y92295180D01*
X1011761905Y92961847D02*
X1011761905Y92438038D01*
X1011761905Y92438038D02*
X1011809524Y92342800D01*
X1011809524Y92342800D02*
X1011904762Y92295180D01*
X1011904762Y92295180D02*
X1012047619Y92295180D01*
X1012047619Y92295180D02*
X1012142857Y92342800D01*
X1012142857Y92342800D02*
X1012190476Y92390419D01*
X1012523810Y92961847D02*
X1012904762Y92961847D01*
X1012666667Y93295180D02*
X1012666667Y92438038D01*
X1012666667Y92438038D02*
X1012714286Y92342800D01*
X1012714286Y92342800D02*
X1012809524Y92295180D01*
X1012809524Y92295180D02*
X1012904762Y92295180D01*
X1013095239Y92961847D02*
X1013476191Y92961847D01*
X1013238096Y93295180D02*
X1013238096Y92438038D01*
X1013238096Y92438038D02*
X1013285715Y92342800D01*
X1013285715Y92342800D02*
X1013380953Y92295180D01*
X1013380953Y92295180D02*
X1013476191Y92295180D01*
X1013952382Y92295180D02*
X1013857144Y92342800D01*
X1013857144Y92342800D02*
X1013809525Y92390419D01*
X1013809525Y92390419D02*
X1013761906Y92485657D01*
X1013761906Y92485657D02*
X1013761906Y92771371D01*
X1013761906Y92771371D02*
X1013809525Y92866609D01*
X1013809525Y92866609D02*
X1013857144Y92914228D01*
X1013857144Y92914228D02*
X1013952382Y92961847D01*
X1013952382Y92961847D02*
X1014095239Y92961847D01*
X1014095239Y92961847D02*
X1014190477Y92914228D01*
X1014190477Y92914228D02*
X1014238096Y92866609D01*
X1014238096Y92866609D02*
X1014285715Y92771371D01*
X1014285715Y92771371D02*
X1014285715Y92485657D01*
X1014285715Y92485657D02*
X1014238096Y92390419D01*
X1014238096Y92390419D02*
X1014190477Y92342800D01*
X1014190477Y92342800D02*
X1014095239Y92295180D01*
X1014095239Y92295180D02*
X1013952382Y92295180D01*
X1014714287Y92961847D02*
X1014714287Y92295180D01*
X1014714287Y92866609D02*
X1014761906Y92914228D01*
X1014761906Y92914228D02*
X1014857144Y92961847D01*
X1014857144Y92961847D02*
X1015000001Y92961847D01*
X1015000001Y92961847D02*
X1015095239Y92914228D01*
X1015095239Y92914228D02*
X1015142858Y92818990D01*
X1015142858Y92818990D02*
X1015142858Y92295180D01*
X1016142858Y92295180D02*
X1015571430Y92295180D01*
X1015857144Y92295180D02*
X1015857144Y93295180D01*
X1015857144Y93295180D02*
X1015761906Y93152323D01*
X1015761906Y93152323D02*
X1015666668Y93057085D01*
X1015666668Y93057085D02*
X1015571430Y93009466D01*
X1010633333Y69445180D02*
X1010300000Y69921371D01*
X1010061905Y69445180D02*
X1010061905Y70445180D01*
X1010061905Y70445180D02*
X1010442857Y70445180D01*
X1010442857Y70445180D02*
X1010538095Y70397561D01*
X1010538095Y70397561D02*
X1010585714Y70349942D01*
X1010585714Y70349942D02*
X1010633333Y70254704D01*
X1010633333Y70254704D02*
X1010633333Y70111847D01*
X1010633333Y70111847D02*
X1010585714Y70016609D01*
X1010585714Y70016609D02*
X1010538095Y69968990D01*
X1010538095Y69968990D02*
X1010442857Y69921371D01*
X1010442857Y69921371D02*
X1010061905Y69921371D01*
X1011585714Y69445180D02*
X1011014286Y69445180D01*
X1011300000Y69445180D02*
X1011300000Y70445180D01*
X1011300000Y70445180D02*
X1011204762Y70302323D01*
X1011204762Y70302323D02*
X1011109524Y70207085D01*
X1011109524Y70207085D02*
X1011014286Y70159466D01*
X988690475Y107488990D02*
X989023808Y107488990D01*
X989166665Y106965180D02*
X988690475Y106965180D01*
X988690475Y106965180D02*
X988690475Y107965180D01*
X988690475Y107965180D02*
X989166665Y107965180D01*
X989547618Y107012800D02*
X989690475Y106965180D01*
X989690475Y106965180D02*
X989928570Y106965180D01*
X989928570Y106965180D02*
X990023808Y107012800D01*
X990023808Y107012800D02*
X990071427Y107060419D01*
X990071427Y107060419D02*
X990119046Y107155657D01*
X990119046Y107155657D02*
X990119046Y107250895D01*
X990119046Y107250895D02*
X990071427Y107346133D01*
X990071427Y107346133D02*
X990023808Y107393752D01*
X990023808Y107393752D02*
X989928570Y107441371D01*
X989928570Y107441371D02*
X989738094Y107488990D01*
X989738094Y107488990D02*
X989642856Y107536609D01*
X989642856Y107536609D02*
X989595237Y107584228D01*
X989595237Y107584228D02*
X989547618Y107679466D01*
X989547618Y107679466D02*
X989547618Y107774704D01*
X989547618Y107774704D02*
X989595237Y107869942D01*
X989595237Y107869942D02*
X989642856Y107917561D01*
X989642856Y107917561D02*
X989738094Y107965180D01*
X989738094Y107965180D02*
X989976189Y107965180D01*
X989976189Y107965180D02*
X990119046Y107917561D01*
X990547618Y106965180D02*
X990547618Y107965180D01*
X990547618Y107965180D02*
X990928570Y107965180D01*
X990928570Y107965180D02*
X991023808Y107917561D01*
X991023808Y107917561D02*
X991071427Y107869942D01*
X991071427Y107869942D02*
X991119046Y107774704D01*
X991119046Y107774704D02*
X991119046Y107631847D01*
X991119046Y107631847D02*
X991071427Y107536609D01*
X991071427Y107536609D02*
X991023808Y107488990D01*
X991023808Y107488990D02*
X990928570Y107441371D01*
X990928570Y107441371D02*
X990547618Y107441371D01*
X991452380Y107965180D02*
X992071427Y107965180D01*
X992071427Y107965180D02*
X991738094Y107584228D01*
X991738094Y107584228D02*
X991880951Y107584228D01*
X991880951Y107584228D02*
X991976189Y107536609D01*
X991976189Y107536609D02*
X992023808Y107488990D01*
X992023808Y107488990D02*
X992071427Y107393752D01*
X992071427Y107393752D02*
X992071427Y107155657D01*
X992071427Y107155657D02*
X992023808Y107060419D01*
X992023808Y107060419D02*
X991976189Y107012800D01*
X991976189Y107012800D02*
X991880951Y106965180D01*
X991880951Y106965180D02*
X991595237Y106965180D01*
X991595237Y106965180D02*
X991499999Y107012800D01*
X991499999Y107012800D02*
X991452380Y107060419D01*
X992452380Y107869942D02*
X992499999Y107917561D01*
X992499999Y107917561D02*
X992595237Y107965180D01*
X992595237Y107965180D02*
X992833332Y107965180D01*
X992833332Y107965180D02*
X992928570Y107917561D01*
X992928570Y107917561D02*
X992976189Y107869942D01*
X992976189Y107869942D02*
X993023808Y107774704D01*
X993023808Y107774704D02*
X993023808Y107679466D01*
X993023808Y107679466D02*
X992976189Y107536609D01*
X992976189Y107536609D02*
X992404761Y106965180D01*
X992404761Y106965180D02*
X993023808Y106965180D01*
X993214285Y106869942D02*
X993976189Y106869942D01*
X994785713Y106965180D02*
X994452380Y107441371D01*
X994214285Y106965180D02*
X994214285Y107965180D01*
X994214285Y107965180D02*
X994595237Y107965180D01*
X994595237Y107965180D02*
X994690475Y107917561D01*
X994690475Y107917561D02*
X994738094Y107869942D01*
X994738094Y107869942D02*
X994785713Y107774704D01*
X994785713Y107774704D02*
X994785713Y107631847D01*
X994785713Y107631847D02*
X994738094Y107536609D01*
X994738094Y107536609D02*
X994690475Y107488990D01*
X994690475Y107488990D02*
X994595237Y107441371D01*
X994595237Y107441371D02*
X994214285Y107441371D01*
X995214285Y106965180D02*
X995214285Y107631847D01*
X995214285Y107965180D02*
X995166666Y107917561D01*
X995166666Y107917561D02*
X995214285Y107869942D01*
X995214285Y107869942D02*
X995261904Y107917561D01*
X995261904Y107917561D02*
X995214285Y107965180D01*
X995214285Y107965180D02*
X995214285Y107869942D01*
X996119046Y107631847D02*
X996119046Y106822323D01*
X996119046Y106822323D02*
X996071427Y106727085D01*
X996071427Y106727085D02*
X996023808Y106679466D01*
X996023808Y106679466D02*
X995928570Y106631847D01*
X995928570Y106631847D02*
X995785713Y106631847D01*
X995785713Y106631847D02*
X995690475Y106679466D01*
X996119046Y107012800D02*
X996023808Y106965180D01*
X996023808Y106965180D02*
X995833332Y106965180D01*
X995833332Y106965180D02*
X995738094Y107012800D01*
X995738094Y107012800D02*
X995690475Y107060419D01*
X995690475Y107060419D02*
X995642856Y107155657D01*
X995642856Y107155657D02*
X995642856Y107441371D01*
X995642856Y107441371D02*
X995690475Y107536609D01*
X995690475Y107536609D02*
X995738094Y107584228D01*
X995738094Y107584228D02*
X995833332Y107631847D01*
X995833332Y107631847D02*
X996023808Y107631847D01*
X996023808Y107631847D02*
X996119046Y107584228D01*
X996595237Y106965180D02*
X996595237Y107965180D01*
X997023808Y106965180D02*
X997023808Y107488990D01*
X997023808Y107488990D02*
X996976189Y107584228D01*
X996976189Y107584228D02*
X996880951Y107631847D01*
X996880951Y107631847D02*
X996738094Y107631847D01*
X996738094Y107631847D02*
X996642856Y107584228D01*
X996642856Y107584228D02*
X996595237Y107536609D01*
X997357142Y107631847D02*
X997738094Y107631847D01*
X997499999Y107965180D02*
X997499999Y107108038D01*
X997499999Y107108038D02*
X997547618Y107012800D01*
X997547618Y107012800D02*
X997642856Y106965180D01*
X997642856Y106965180D02*
X997738094Y106965180D01*
X997833333Y106869942D02*
X998595237Y106869942D01*
X998833333Y106965180D02*
X998833333Y107965180D01*
X998833333Y107488990D02*
X999404761Y107488990D01*
X999404761Y106965180D02*
X999404761Y107965180D01*
X1000261904Y107012800D02*
X1000166666Y106965180D01*
X1000166666Y106965180D02*
X999976190Y106965180D01*
X999976190Y106965180D02*
X999880952Y107012800D01*
X999880952Y107012800D02*
X999833333Y107108038D01*
X999833333Y107108038D02*
X999833333Y107488990D01*
X999833333Y107488990D02*
X999880952Y107584228D01*
X999880952Y107584228D02*
X999976190Y107631847D01*
X999976190Y107631847D02*
X1000166666Y107631847D01*
X1000166666Y107631847D02*
X1000261904Y107584228D01*
X1000261904Y107584228D02*
X1000309523Y107488990D01*
X1000309523Y107488990D02*
X1000309523Y107393752D01*
X1000309523Y107393752D02*
X999833333Y107298514D01*
X1001166666Y106965180D02*
X1001166666Y107488990D01*
X1001166666Y107488990D02*
X1001119047Y107584228D01*
X1001119047Y107584228D02*
X1001023809Y107631847D01*
X1001023809Y107631847D02*
X1000833333Y107631847D01*
X1000833333Y107631847D02*
X1000738095Y107584228D01*
X1001166666Y107012800D02*
X1001071428Y106965180D01*
X1001071428Y106965180D02*
X1000833333Y106965180D01*
X1000833333Y106965180D02*
X1000738095Y107012800D01*
X1000738095Y107012800D02*
X1000690476Y107108038D01*
X1000690476Y107108038D02*
X1000690476Y107203276D01*
X1000690476Y107203276D02*
X1000738095Y107298514D01*
X1000738095Y107298514D02*
X1000833333Y107346133D01*
X1000833333Y107346133D02*
X1001071428Y107346133D01*
X1001071428Y107346133D02*
X1001166666Y107393752D01*
X1002071428Y106965180D02*
X1002071428Y107965180D01*
X1002071428Y107012800D02*
X1001976190Y106965180D01*
X1001976190Y106965180D02*
X1001785714Y106965180D01*
X1001785714Y106965180D02*
X1001690476Y107012800D01*
X1001690476Y107012800D02*
X1001642857Y107060419D01*
X1001642857Y107060419D02*
X1001595238Y107155657D01*
X1001595238Y107155657D02*
X1001595238Y107441371D01*
X1001595238Y107441371D02*
X1001642857Y107536609D01*
X1001642857Y107536609D02*
X1001690476Y107584228D01*
X1001690476Y107584228D02*
X1001785714Y107631847D01*
X1001785714Y107631847D02*
X1001976190Y107631847D01*
X1001976190Y107631847D02*
X1002071428Y107584228D01*
X1002928571Y107012800D02*
X1002833333Y106965180D01*
X1002833333Y106965180D02*
X1002642857Y106965180D01*
X1002642857Y106965180D02*
X1002547619Y107012800D01*
X1002547619Y107012800D02*
X1002500000Y107108038D01*
X1002500000Y107108038D02*
X1002500000Y107488990D01*
X1002500000Y107488990D02*
X1002547619Y107584228D01*
X1002547619Y107584228D02*
X1002642857Y107631847D01*
X1002642857Y107631847D02*
X1002833333Y107631847D01*
X1002833333Y107631847D02*
X1002928571Y107584228D01*
X1002928571Y107584228D02*
X1002976190Y107488990D01*
X1002976190Y107488990D02*
X1002976190Y107393752D01*
X1002976190Y107393752D02*
X1002500000Y107298514D01*
X1003404762Y106965180D02*
X1003404762Y107631847D01*
X1003404762Y107441371D02*
X1003452381Y107536609D01*
X1003452381Y107536609D02*
X1003500000Y107584228D01*
X1003500000Y107584228D02*
X1003595238Y107631847D01*
X1003595238Y107631847D02*
X1003690476Y107631847D01*
X1003976191Y107012800D02*
X1004071429Y106965180D01*
X1004071429Y106965180D02*
X1004261905Y106965180D01*
X1004261905Y106965180D02*
X1004357143Y107012800D01*
X1004357143Y107012800D02*
X1004404762Y107108038D01*
X1004404762Y107108038D02*
X1004404762Y107155657D01*
X1004404762Y107155657D02*
X1004357143Y107250895D01*
X1004357143Y107250895D02*
X1004261905Y107298514D01*
X1004261905Y107298514D02*
X1004119048Y107298514D01*
X1004119048Y107298514D02*
X1004023810Y107346133D01*
X1004023810Y107346133D02*
X1003976191Y107441371D01*
X1003976191Y107441371D02*
X1003976191Y107488990D01*
X1003976191Y107488990D02*
X1004023810Y107584228D01*
X1004023810Y107584228D02*
X1004119048Y107631847D01*
X1004119048Y107631847D02*
X1004261905Y107631847D01*
X1004261905Y107631847D02*
X1004357143Y107584228D01*
X1005357143Y106965180D02*
X1004785715Y106965180D01*
X1005071429Y106965180D02*
X1005071429Y107965180D01*
X1005071429Y107965180D02*
X1004976191Y107822323D01*
X1004976191Y107822323D02*
X1004880953Y107727085D01*
X1004880953Y107727085D02*
X1004785715Y107679466D01*
X972714284Y103948990D02*
X973047617Y103948990D01*
X973190474Y103425180D02*
X972714284Y103425180D01*
X972714284Y103425180D02*
X972714284Y104425180D01*
X972714284Y104425180D02*
X973190474Y104425180D01*
X973571427Y103472800D02*
X973714284Y103425180D01*
X973714284Y103425180D02*
X973952379Y103425180D01*
X973952379Y103425180D02*
X974047617Y103472800D01*
X974047617Y103472800D02*
X974095236Y103520419D01*
X974095236Y103520419D02*
X974142855Y103615657D01*
X974142855Y103615657D02*
X974142855Y103710895D01*
X974142855Y103710895D02*
X974095236Y103806133D01*
X974095236Y103806133D02*
X974047617Y103853752D01*
X974047617Y103853752D02*
X973952379Y103901371D01*
X973952379Y103901371D02*
X973761903Y103948990D01*
X973761903Y103948990D02*
X973666665Y103996609D01*
X973666665Y103996609D02*
X973619046Y104044228D01*
X973619046Y104044228D02*
X973571427Y104139466D01*
X973571427Y104139466D02*
X973571427Y104234704D01*
X973571427Y104234704D02*
X973619046Y104329942D01*
X973619046Y104329942D02*
X973666665Y104377561D01*
X973666665Y104377561D02*
X973761903Y104425180D01*
X973761903Y104425180D02*
X973999998Y104425180D01*
X973999998Y104425180D02*
X974142855Y104377561D01*
X974571427Y103425180D02*
X974571427Y104425180D01*
X974571427Y104425180D02*
X974952379Y104425180D01*
X974952379Y104425180D02*
X975047617Y104377561D01*
X975047617Y104377561D02*
X975095236Y104329942D01*
X975095236Y104329942D02*
X975142855Y104234704D01*
X975142855Y104234704D02*
X975142855Y104091847D01*
X975142855Y104091847D02*
X975095236Y103996609D01*
X975095236Y103996609D02*
X975047617Y103948990D01*
X975047617Y103948990D02*
X974952379Y103901371D01*
X974952379Y103901371D02*
X974571427Y103901371D01*
X975476189Y104425180D02*
X976095236Y104425180D01*
X976095236Y104425180D02*
X975761903Y104044228D01*
X975761903Y104044228D02*
X975904760Y104044228D01*
X975904760Y104044228D02*
X975999998Y103996609D01*
X975999998Y103996609D02*
X976047617Y103948990D01*
X976047617Y103948990D02*
X976095236Y103853752D01*
X976095236Y103853752D02*
X976095236Y103615657D01*
X976095236Y103615657D02*
X976047617Y103520419D01*
X976047617Y103520419D02*
X975999998Y103472800D01*
X975999998Y103472800D02*
X975904760Y103425180D01*
X975904760Y103425180D02*
X975619046Y103425180D01*
X975619046Y103425180D02*
X975523808Y103472800D01*
X975523808Y103472800D02*
X975476189Y103520419D01*
X976476189Y104329942D02*
X976523808Y104377561D01*
X976523808Y104377561D02*
X976619046Y104425180D01*
X976619046Y104425180D02*
X976857141Y104425180D01*
X976857141Y104425180D02*
X976952379Y104377561D01*
X976952379Y104377561D02*
X976999998Y104329942D01*
X976999998Y104329942D02*
X977047617Y104234704D01*
X977047617Y104234704D02*
X977047617Y104139466D01*
X977047617Y104139466D02*
X976999998Y103996609D01*
X976999998Y103996609D02*
X976428570Y103425180D01*
X976428570Y103425180D02*
X977047617Y103425180D01*
X977238094Y103329942D02*
X977999998Y103329942D01*
X978714284Y103425180D02*
X978238094Y103425180D01*
X978238094Y103425180D02*
X978238094Y104425180D01*
X979428570Y103472800D02*
X979333332Y103425180D01*
X979333332Y103425180D02*
X979142856Y103425180D01*
X979142856Y103425180D02*
X979047618Y103472800D01*
X979047618Y103472800D02*
X978999999Y103568038D01*
X978999999Y103568038D02*
X978999999Y103948990D01*
X978999999Y103948990D02*
X979047618Y104044228D01*
X979047618Y104044228D02*
X979142856Y104091847D01*
X979142856Y104091847D02*
X979333332Y104091847D01*
X979333332Y104091847D02*
X979428570Y104044228D01*
X979428570Y104044228D02*
X979476189Y103948990D01*
X979476189Y103948990D02*
X979476189Y103853752D01*
X979476189Y103853752D02*
X978999999Y103758514D01*
X979761904Y104091847D02*
X980142856Y104091847D01*
X979904761Y103425180D02*
X979904761Y104282323D01*
X979904761Y104282323D02*
X979952380Y104377561D01*
X979952380Y104377561D02*
X980047618Y104425180D01*
X980047618Y104425180D02*
X980142856Y104425180D01*
X980333333Y104091847D02*
X980714285Y104091847D01*
X980476190Y104425180D02*
X980476190Y103568038D01*
X980476190Y103568038D02*
X980523809Y103472800D01*
X980523809Y103472800D02*
X980619047Y103425180D01*
X980619047Y103425180D02*
X980714285Y103425180D01*
X980809524Y103329942D02*
X981571428Y103329942D01*
X981809524Y103425180D02*
X981809524Y104425180D01*
X981809524Y103948990D02*
X982380952Y103948990D01*
X982380952Y103425180D02*
X982380952Y104425180D01*
X983238095Y103472800D02*
X983142857Y103425180D01*
X983142857Y103425180D02*
X982952381Y103425180D01*
X982952381Y103425180D02*
X982857143Y103472800D01*
X982857143Y103472800D02*
X982809524Y103568038D01*
X982809524Y103568038D02*
X982809524Y103948990D01*
X982809524Y103948990D02*
X982857143Y104044228D01*
X982857143Y104044228D02*
X982952381Y104091847D01*
X982952381Y104091847D02*
X983142857Y104091847D01*
X983142857Y104091847D02*
X983238095Y104044228D01*
X983238095Y104044228D02*
X983285714Y103948990D01*
X983285714Y103948990D02*
X983285714Y103853752D01*
X983285714Y103853752D02*
X982809524Y103758514D01*
X984142857Y103425180D02*
X984142857Y103948990D01*
X984142857Y103948990D02*
X984095238Y104044228D01*
X984095238Y104044228D02*
X984000000Y104091847D01*
X984000000Y104091847D02*
X983809524Y104091847D01*
X983809524Y104091847D02*
X983714286Y104044228D01*
X984142857Y103472800D02*
X984047619Y103425180D01*
X984047619Y103425180D02*
X983809524Y103425180D01*
X983809524Y103425180D02*
X983714286Y103472800D01*
X983714286Y103472800D02*
X983666667Y103568038D01*
X983666667Y103568038D02*
X983666667Y103663276D01*
X983666667Y103663276D02*
X983714286Y103758514D01*
X983714286Y103758514D02*
X983809524Y103806133D01*
X983809524Y103806133D02*
X984047619Y103806133D01*
X984047619Y103806133D02*
X984142857Y103853752D01*
X985047619Y103425180D02*
X985047619Y104425180D01*
X985047619Y103472800D02*
X984952381Y103425180D01*
X984952381Y103425180D02*
X984761905Y103425180D01*
X984761905Y103425180D02*
X984666667Y103472800D01*
X984666667Y103472800D02*
X984619048Y103520419D01*
X984619048Y103520419D02*
X984571429Y103615657D01*
X984571429Y103615657D02*
X984571429Y103901371D01*
X984571429Y103901371D02*
X984619048Y103996609D01*
X984619048Y103996609D02*
X984666667Y104044228D01*
X984666667Y104044228D02*
X984761905Y104091847D01*
X984761905Y104091847D02*
X984952381Y104091847D01*
X984952381Y104091847D02*
X985047619Y104044228D01*
X985904762Y103472800D02*
X985809524Y103425180D01*
X985809524Y103425180D02*
X985619048Y103425180D01*
X985619048Y103425180D02*
X985523810Y103472800D01*
X985523810Y103472800D02*
X985476191Y103568038D01*
X985476191Y103568038D02*
X985476191Y103948990D01*
X985476191Y103948990D02*
X985523810Y104044228D01*
X985523810Y104044228D02*
X985619048Y104091847D01*
X985619048Y104091847D02*
X985809524Y104091847D01*
X985809524Y104091847D02*
X985904762Y104044228D01*
X985904762Y104044228D02*
X985952381Y103948990D01*
X985952381Y103948990D02*
X985952381Y103853752D01*
X985952381Y103853752D02*
X985476191Y103758514D01*
X986380953Y103425180D02*
X986380953Y104091847D01*
X986380953Y103901371D02*
X986428572Y103996609D01*
X986428572Y103996609D02*
X986476191Y104044228D01*
X986476191Y104044228D02*
X986571429Y104091847D01*
X986571429Y104091847D02*
X986666667Y104091847D01*
X986952382Y103472800D02*
X987047620Y103425180D01*
X987047620Y103425180D02*
X987238096Y103425180D01*
X987238096Y103425180D02*
X987333334Y103472800D01*
X987333334Y103472800D02*
X987380953Y103568038D01*
X987380953Y103568038D02*
X987380953Y103615657D01*
X987380953Y103615657D02*
X987333334Y103710895D01*
X987333334Y103710895D02*
X987238096Y103758514D01*
X987238096Y103758514D02*
X987095239Y103758514D01*
X987095239Y103758514D02*
X987000001Y103806133D01*
X987000001Y103806133D02*
X986952382Y103901371D01*
X986952382Y103901371D02*
X986952382Y103948990D01*
X986952382Y103948990D02*
X987000001Y104044228D01*
X987000001Y104044228D02*
X987095239Y104091847D01*
X987095239Y104091847D02*
X987238096Y104091847D01*
X987238096Y104091847D02*
X987333334Y104044228D01*
X988333334Y103425180D02*
X987761906Y103425180D01*
X988047620Y103425180D02*
X988047620Y104425180D01*
X988047620Y104425180D02*
X987952382Y104282323D01*
X987952382Y104282323D02*
X987857144Y104187085D01*
X987857144Y104187085D02*
X987761906Y104139466D01*
X1007976190Y76915180D02*
X1007404762Y76915180D01*
X1007690476Y76915180D02*
X1007690476Y77915180D01*
X1007690476Y77915180D02*
X1007595238Y77772323D01*
X1007595238Y77772323D02*
X1007500000Y77677085D01*
X1007500000Y77677085D02*
X1007404762Y77629466D01*
X1008595238Y77915180D02*
X1008690476Y77915180D01*
X1008690476Y77915180D02*
X1008785714Y77867561D01*
X1008785714Y77867561D02*
X1008833333Y77819942D01*
X1008833333Y77819942D02*
X1008880952Y77724704D01*
X1008880952Y77724704D02*
X1008928571Y77534228D01*
X1008928571Y77534228D02*
X1008928571Y77296133D01*
X1008928571Y77296133D02*
X1008880952Y77105657D01*
X1008880952Y77105657D02*
X1008833333Y77010419D01*
X1008833333Y77010419D02*
X1008785714Y76962800D01*
X1008785714Y76962800D02*
X1008690476Y76915180D01*
X1008690476Y76915180D02*
X1008595238Y76915180D01*
X1008595238Y76915180D02*
X1008500000Y76962800D01*
X1008500000Y76962800D02*
X1008452381Y77010419D01*
X1008452381Y77010419D02*
X1008404762Y77105657D01*
X1008404762Y77105657D02*
X1008357143Y77296133D01*
X1008357143Y77296133D02*
X1008357143Y77534228D01*
X1008357143Y77534228D02*
X1008404762Y77724704D01*
X1008404762Y77724704D02*
X1008452381Y77819942D01*
X1008452381Y77819942D02*
X1008500000Y77867561D01*
X1008500000Y77867561D02*
X1008595238Y77915180D01*
X1009357143Y76915180D02*
X1009357143Y77915180D01*
X1009452381Y77296133D02*
X1009738095Y76915180D01*
X1009738095Y77581847D02*
X1009357143Y77200895D01*
X1009928572Y76819942D02*
X1010690476Y76819942D01*
X1011071429Y76915180D02*
X1010976191Y76962800D01*
X1010976191Y76962800D02*
X1010928572Y77010419D01*
X1010928572Y77010419D02*
X1010880953Y77105657D01*
X1010880953Y77105657D02*
X1010880953Y77391371D01*
X1010880953Y77391371D02*
X1010928572Y77486609D01*
X1010928572Y77486609D02*
X1010976191Y77534228D01*
X1010976191Y77534228D02*
X1011071429Y77581847D01*
X1011071429Y77581847D02*
X1011214286Y77581847D01*
X1011214286Y77581847D02*
X1011309524Y77534228D01*
X1011309524Y77534228D02*
X1011357143Y77486609D01*
X1011357143Y77486609D02*
X1011404762Y77391371D01*
X1011404762Y77391371D02*
X1011404762Y77105657D01*
X1011404762Y77105657D02*
X1011357143Y77010419D01*
X1011357143Y77010419D02*
X1011309524Y76962800D01*
X1011309524Y76962800D02*
X1011214286Y76915180D01*
X1011214286Y76915180D02*
X1011071429Y76915180D01*
X1011833334Y76915180D02*
X1011833334Y77915180D01*
X1012261905Y76915180D02*
X1012261905Y77438990D01*
X1012261905Y77438990D02*
X1012214286Y77534228D01*
X1012214286Y77534228D02*
X1012119048Y77581847D01*
X1012119048Y77581847D02*
X1011976191Y77581847D01*
X1011976191Y77581847D02*
X1011880953Y77534228D01*
X1011880953Y77534228D02*
X1011833334Y77486609D01*
X1012738096Y76915180D02*
X1012738096Y77581847D01*
X1012738096Y77486609D02*
X1012785715Y77534228D01*
X1012785715Y77534228D02*
X1012880953Y77581847D01*
X1012880953Y77581847D02*
X1013023810Y77581847D01*
X1013023810Y77581847D02*
X1013119048Y77534228D01*
X1013119048Y77534228D02*
X1013166667Y77438990D01*
X1013166667Y77438990D02*
X1013166667Y76915180D01*
X1013166667Y77438990D02*
X1013214286Y77534228D01*
X1013214286Y77534228D02*
X1013309524Y77581847D01*
X1013309524Y77581847D02*
X1013452381Y77581847D01*
X1013452381Y77581847D02*
X1013547620Y77534228D01*
X1013547620Y77534228D02*
X1013595239Y77438990D01*
X1013595239Y77438990D02*
X1013595239Y76915180D01*
X1014595238Y76915180D02*
X1014023810Y76915180D01*
X1014309524Y76915180D02*
X1014309524Y77915180D01*
X1014309524Y77915180D02*
X1014214286Y77772323D01*
X1014214286Y77772323D02*
X1014119048Y77677085D01*
X1014119048Y77677085D02*
X1014023810Y77629466D01*
X1011119047Y116768990D02*
X1011261904Y116721371D01*
X1011261904Y116721371D02*
X1011309523Y116673752D01*
X1011309523Y116673752D02*
X1011357142Y116578514D01*
X1011357142Y116578514D02*
X1011357142Y116435657D01*
X1011357142Y116435657D02*
X1011309523Y116340419D01*
X1011309523Y116340419D02*
X1011261904Y116292800D01*
X1011261904Y116292800D02*
X1011166666Y116245180D01*
X1011166666Y116245180D02*
X1010785714Y116245180D01*
X1010785714Y116245180D02*
X1010785714Y117245180D01*
X1010785714Y117245180D02*
X1011119047Y117245180D01*
X1011119047Y117245180D02*
X1011214285Y117197561D01*
X1011214285Y117197561D02*
X1011261904Y117149942D01*
X1011261904Y117149942D02*
X1011309523Y117054704D01*
X1011309523Y117054704D02*
X1011309523Y116959466D01*
X1011309523Y116959466D02*
X1011261904Y116864228D01*
X1011261904Y116864228D02*
X1011214285Y116816609D01*
X1011214285Y116816609D02*
X1011119047Y116768990D01*
X1011119047Y116768990D02*
X1010785714Y116768990D01*
X1011690476Y117245180D02*
X1012357142Y117245180D01*
X1012357142Y117245180D02*
X1011690476Y116245180D01*
X1011690476Y116245180D02*
X1012357142Y116245180D01*
X1013261904Y116245180D02*
X1012690476Y116245180D01*
X1012976190Y116245180D02*
X1012976190Y117245180D01*
X1012976190Y117245180D02*
X1012880952Y117102323D01*
X1012880952Y117102323D02*
X1012785714Y117007085D01*
X1012785714Y117007085D02*
X1012690476Y116959466D01*
X1007809048Y111966133D02*
X1008570953Y111966133D01*
X1008190000Y111585180D02*
X1008190000Y112347085D01*
%TO.C,Reset_Button1*%
D11*
X1007500000Y89250000D02*
X1007500000Y87750000D01*
X1008750000Y85250000D02*
X1013250000Y85250000D01*
X1013250000Y91750000D02*
X1008750000Y91750000D01*
X1014500000Y87750000D02*
X1014500000Y89250000D01*
%TO.C,R1*%
X1009250000Y69150000D02*
X1012300000Y69150000D01*
X1009250000Y64850000D02*
X1012300000Y64850000D01*
X1009250000Y64850000D02*
G75*
G02*
X1009271766Y69165525I1550000J2150000D01*
G01*
X1012300000Y69150000D02*
G75*
G02*
X1012344513Y64881751I-1500000J-2150000D01*
G01*
%TO.C,ESP32_Right_Headers1*%
X994620000Y106420000D02*
X996000000Y106420000D01*
X994620000Y105040000D02*
X994620000Y106420000D01*
X994620000Y103770000D02*
X994620000Y68100000D01*
X994620000Y103770000D02*
X997380000Y103770000D01*
X994620000Y68100000D02*
X997380000Y68100000D01*
X997380000Y103770000D02*
X997380000Y68100000D01*
%TO.C,ESP32_Left_Headers1*%
X979120000Y102880000D02*
X980500000Y102880000D01*
X979120000Y101500000D02*
X979120000Y102880000D01*
X979120000Y100230000D02*
X979120000Y64560000D01*
X979120000Y100230000D02*
X981880000Y100230000D01*
X979120000Y64560000D02*
X981880000Y64560000D01*
X981880000Y100230000D02*
X981880000Y64560000D01*
%TO.C,10k_ohm1*%
X1007730000Y76370000D02*
X1014270000Y76370000D01*
X1007730000Y76040000D02*
X1007730000Y76370000D01*
X1007730000Y73960000D02*
X1007730000Y73630000D01*
X1007730000Y73630000D02*
X1014270000Y73630000D01*
X1014270000Y76370000D02*
X1014270000Y76040000D01*
X1014270000Y73630000D02*
X1014270000Y73960000D01*
%TO.C,BZ1*%
X1018100000Y109500000D02*
G75*
G02*
X1005900000Y109500000I-6100000J0D01*
G01*
X1005900000Y109500000D02*
G75*
G02*
X1018100000Y109500000I6100000J0D01*
G01*
%TD*%
M02*
