%TF.GenerationSoftware,KiCad,Pcbnew,10.0.2*%
%TF.CreationDate,2026-06-04T11:42:36+05:30*%
%TF.ProjectId,esp32-laser-security,65737033-322d-46c6-9173-65722d736563,rev?*%
%TF.SameCoordinates,Original*%
%TF.FileFunction,Copper,L1,Top*%
%TF.FilePolarity,Positive*%
%FSLAX46Y46*%
G04 Gerber Fmt 4.6, Leading zero omitted, Abs format (unit mm)*
G04 Created by KiCad (PCBNEW 10.0.2) date 2026-06-04 11:42:36*
%MOMM*%
%LPD*%
G01*
G04 APERTURE LIST*
%TA.AperFunction,ComponentPad*%
%ADD10C,2.000000*%
%TD*%
%TA.AperFunction,ComponentPad*%
%ADD11C,1.500000*%
%TD*%
%TA.AperFunction,ComponentPad*%
%ADD12R,1.700000X1.700000*%
%TD*%
%TA.AperFunction,ComponentPad*%
%ADD13C,1.700000*%
%TD*%
%TA.AperFunction,ComponentPad*%
%ADD14C,1.600000*%
%TD*%
%TA.AperFunction,ComponentPad*%
%ADD15R,2.000000X2.000000*%
%TD*%
%TA.AperFunction,Conductor*%
%ADD16C,0.200000*%
%TD*%
G04 APERTURE END LIST*
D10*
%TO.P,Reset_Button1,1,1_1*%
%TO.N,Net-(BZ1--)*%
X1007750000Y90750000D03*
X1014250000Y90750000D03*
%TO.P,Reset_Button1,2,2_2*%
%TO.N,Net-(ESP32_Right_Headers1-Pin_9)*%
X1007750000Y86250000D03*
X1014250000Y86250000D03*
%TD*%
D11*
%TO.P,R1,1*%
%TO.N,Net-(ESP32_Left_Headers1-Pin_12)*%
X1009100000Y67000000D03*
%TO.P,R1,2*%
%TO.N,Net-(ESP32_Right_Headers1-Pin_1)*%
X1012500000Y67000000D03*
%TD*%
D12*
%TO.P,ESP32_Right_Headers1,1,Pin_1_1*%
%TO.N,Net-(ESP32_Right_Headers1-Pin_1)*%
X996000000Y105040000D03*
D13*
%TO.P,ESP32_Right_Headers1,2,Pin_2_2*%
%TO.N,Net-(BZ1--)*%
X996000000Y102500000D03*
%TO.P,ESP32_Right_Headers1,3,Pin_3_3*%
%TO.N,unconnected-(ESP32_Right_Headers1-Pin_3-Pad3)*%
X996000000Y99960000D03*
%TO.P,ESP32_Right_Headers1,4,Pin_4_4*%
%TO.N,unconnected-(ESP32_Right_Headers1-Pin_4-Pad4)*%
X996000000Y97420000D03*
%TO.P,ESP32_Right_Headers1,5,Pin_5_5*%
%TO.N,unconnected-(ESP32_Right_Headers1-Pin_5-Pad5)*%
X996000000Y94880000D03*
%TO.P,ESP32_Right_Headers1,6,Pin_6_6*%
%TO.N,unconnected-(ESP32_Right_Headers1-Pin_6-Pad6)*%
X996000000Y92340000D03*
%TO.P,ESP32_Right_Headers1,7,Pin_7_7*%
%TO.N,unconnected-(ESP32_Right_Headers1-Pin_7-Pad7)*%
X996000000Y89800000D03*
%TO.P,ESP32_Right_Headers1,8,Pin_8_8*%
%TO.N,Net-(BZ1-+)*%
X996000000Y87260000D03*
%TO.P,ESP32_Right_Headers1,9,Pin_9_9*%
%TO.N,Net-(ESP32_Right_Headers1-Pin_9)*%
X996000000Y84720000D03*
%TO.P,ESP32_Right_Headers1,10,Pin_10_10*%
%TO.N,unconnected-(ESP32_Right_Headers1-Pin_10-Pad10)*%
X996000000Y82180000D03*
%TO.P,ESP32_Right_Headers1,11,Pin_11_11*%
%TO.N,unconnected-(ESP32_Right_Headers1-Pin_11-Pad11)*%
X996000000Y79640000D03*
%TO.P,ESP32_Right_Headers1,12,Pin_12_12*%
%TO.N,unconnected-(ESP32_Right_Headers1-Pin_12-Pad12)*%
X996000000Y77100000D03*
%TO.P,ESP32_Right_Headers1,13,Pin_13_13*%
%TO.N,unconnected-(ESP32_Right_Headers1-Pin_13-Pad13)*%
X996000000Y74560000D03*
%TO.P,ESP32_Right_Headers1,14,Pin_14_14*%
%TO.N,unconnected-(ESP32_Right_Headers1-Pin_14-Pad14)*%
X996000000Y72020000D03*
%TO.P,ESP32_Right_Headers1,15,Pin_15_15*%
%TO.N,unconnected-(ESP32_Right_Headers1-Pin_15-Pad15)*%
X996000000Y69480000D03*
%TD*%
D12*
%TO.P,ESP32_Left_Headers1,1,Pin_1_1*%
%TO.N,unconnected-(ESP32_Left_Headers1-Pin_1-Pad1)*%
X980500000Y101500000D03*
D13*
%TO.P,ESP32_Left_Headers1,2,Pin_2_2*%
%TO.N,unconnected-(ESP32_Left_Headers1-Pin_2-Pad2)*%
X980500000Y98960000D03*
%TO.P,ESP32_Left_Headers1,3,Pin_3_3*%
%TO.N,unconnected-(ESP32_Left_Headers1-Pin_3-Pad3)*%
X980500000Y96420000D03*
%TO.P,ESP32_Left_Headers1,4,Pin_4_4*%
%TO.N,unconnected-(ESP32_Left_Headers1-Pin_4-Pad4)*%
X980500000Y93880000D03*
%TO.P,ESP32_Left_Headers1,5,Pin_5_5*%
%TO.N,unconnected-(ESP32_Left_Headers1-Pin_5-Pad5)*%
X980500000Y91340000D03*
%TO.P,ESP32_Left_Headers1,6,Pin_6_6*%
%TO.N,unconnected-(ESP32_Left_Headers1-Pin_6-Pad6)*%
X980500000Y88800000D03*
%TO.P,ESP32_Left_Headers1,7,Pin_7_7*%
%TO.N,unconnected-(ESP32_Left_Headers1-Pin_7-Pad7)*%
X980500000Y86260000D03*
%TO.P,ESP32_Left_Headers1,8,Pin_8_8*%
%TO.N,unconnected-(ESP32_Left_Headers1-Pin_8-Pad8)*%
X980500000Y83720000D03*
%TO.P,ESP32_Left_Headers1,9,Pin_9_9*%
%TO.N,unconnected-(ESP32_Left_Headers1-Pin_9-Pad9)*%
X980500000Y81180000D03*
%TO.P,ESP32_Left_Headers1,10,Pin_10_10*%
%TO.N,unconnected-(ESP32_Left_Headers1-Pin_10-Pad10)*%
X980500000Y78640000D03*
%TO.P,ESP32_Left_Headers1,11,Pin_11_11*%
%TO.N,unconnected-(ESP32_Left_Headers1-Pin_11-Pad11)*%
X980500000Y76100000D03*
%TO.P,ESP32_Left_Headers1,12,Pin_12_12*%
%TO.N,Net-(ESP32_Left_Headers1-Pin_12)*%
X980500000Y73560000D03*
%TO.P,ESP32_Left_Headers1,13,Pin_13_13*%
%TO.N,unconnected-(ESP32_Left_Headers1-Pin_13-Pad13)*%
X980500000Y71020000D03*
%TO.P,ESP32_Left_Headers1,14,Pin_14_14*%
%TO.N,unconnected-(ESP32_Left_Headers1-Pin_14-Pad14)*%
X980500000Y68480000D03*
%TO.P,ESP32_Left_Headers1,15,Pin_15_15*%
%TO.N,unconnected-(ESP32_Left_Headers1-Pin_15-Pad15)*%
X980500000Y65940000D03*
%TD*%
D14*
%TO.P,10k_ohm1,1*%
%TO.N,Net-(ESP32_Left_Headers1-Pin_12)*%
X1007190000Y75000000D03*
%TO.P,10k_ohm1,2*%
%TO.N,Net-(BZ1--)*%
X1014810000Y75000000D03*
%TD*%
D15*
%TO.P,BZ1,1,+_1*%
%TO.N,Net-(BZ1-+)*%
X1008200000Y109500000D03*
D10*
%TO.P,BZ1,2,-_2*%
%TO.N,Net-(BZ1--)*%
X1015800000Y109500000D03*
%TD*%
%TO.N,Net-(ESP32_Left_Headers1-Pin_12)*%
D16*
X980500000Y73560000D02*
X987060000Y67000000D01*
X987060000Y67000000D02*
X1009100000Y67000000D01*
X1009100000Y67000000D02*
X1010150000Y65950000D01*
%TO.N,Net-(ESP32_Right_Headers1-Pin_1)*%
X1012500000Y67000000D02*
X1001250000Y78250000D01*
X1001250000Y78250000D02*
X993343654Y78250000D01*
X988500000Y105040000D02*
X996000000Y105040000D01*
X993343654Y78250000D02*
X986950000Y84643654D01*
X986950000Y84643654D02*
X986950000Y103490000D01*
X986950000Y103490000D02*
X988500000Y105040000D01*
%TO.N,Net-(BZ1-+)*%
X1008200000Y109500000D02*
X1008200000Y99460000D01*
X1008200000Y99460000D02*
X996000000Y87260000D01*
%TO.N,Net-(ESP32_Right_Headers1-Pin_9)*%
X996000000Y84720000D02*
X1006220000Y84720000D01*
%TO.N,Net-(BZ1--)*%
X996000000Y102500000D02*
X988500000Y102500000D01*
%TO.N,Net-(ESP32_Left_Headers1-Pin_12)*%
X1007190000Y75000000D02*
X1013550000Y68640000D01*
X1013550000Y68640000D02*
X1013550000Y66565075D01*
X1013550000Y66565075D02*
X1012934925Y65950000D01*
X1012934925Y65950000D02*
X1010150000Y65950000D01*
%TO.N,Net-(BZ1--)*%
X1014250000Y90750000D02*
X1015550000Y89450000D01*
X1015550000Y75740000D02*
X1014810000Y75000000D01*
X1015550000Y89450000D02*
X1015550000Y75740000D01*
X1015800000Y109500000D02*
X1014250000Y107950000D01*
X1014250000Y107950000D02*
X1014250000Y90750000D01*
X1007750000Y90750000D02*
X1014250000Y90750000D01*
%TO.N,Net-(ESP32_Right_Headers1-Pin_9)*%
X1014250000Y86250000D02*
X1007750000Y86250000D01*
X1006220000Y84720000D02*
X1007750000Y86250000D01*
%TO.N,Net-(BZ1--)*%
X988500000Y102500000D02*
X987350000Y101350000D01*
X987350000Y101350000D02*
X987350000Y86783654D01*
X1003110000Y86110000D02*
X1007750000Y90750000D01*
X987350000Y86783654D02*
X988023654Y86110000D01*
X988023654Y86110000D02*
X1003110000Y86110000D01*
%TD*%
M02*
