M48
; DRILL file KiCad 10.0.2 date 2026-06-04T11:43:19
; FORMAT={-:-/ absolute / metric / decimal}
; #@! TF.CreationDate,2026-06-04T11:43:19+05:30
; #@! TF.GenerationSoftware,Kicad,Pcbnew,10.0.2
; #@! TF.FileFunction,Plated,1,2,PTH
FMAT,2
METRIC
; #@! TA.AperFunction,Plated,PTH,ComponentDrill
T1C0.800
; #@! TA.AperFunction,Plated,PTH,ComponentDrill
T2C1.000
; #@! TA.AperFunction,Plated,PTH,ComponentDrill
T3C1.100
%
G90
G05
T1
X1007.19Y75.0
X1009.1Y67.0
X1012.5Y67.0
X1014.81Y75.0
T2
X980.5Y101.5
X980.5Y98.96
X980.5Y96.42
X980.5Y93.88
X980.5Y91.34
X980.5Y88.8
X980.5Y86.26
X980.5Y83.72
X980.5Y81.18
X980.5Y78.64
X980.5Y76.1
X980.5Y73.56
X980.5Y71.02
X980.5Y68.48
X980.5Y65.94
X996.0Y105.04
X996.0Y102.5
X996.0Y99.96
X996.0Y97.42
X996.0Y94.88
X996.0Y92.34
X996.0Y89.8
X996.0Y87.26
X996.0Y84.72
X996.0Y82.18
X996.0Y79.64
X996.0Y77.1
X996.0Y74.56
X996.0Y72.02
X996.0Y69.48
X1008.2Y109.5
X1015.8Y109.5
T3
X1007.75Y90.75
X1007.75Y86.25
X1014.25Y90.75
X1014.25Y86.25
M30
