%TF.GenerationSoftware,KiCad,Pcbnew,10.0.2*%
%TF.CreationDate,2026-06-05T12:00:19+05:30*%
%TF.ProjectId,esp32-laser-security,65737033-322d-46c6-9173-65722d736563,rev?*%
%TF.SameCoordinates,Original*%
%TF.FileFunction,Copper,L1,Top*%
%TF.FilePolarity,Positive*%
%FSLAX46Y46*%
G04 Gerber Fmt 4.6, Leading zero omitted, Abs format (unit mm)*
G04 Created by KiCad (PCBNEW 10.0.2) date 2026-06-05 12:00:19*
%MOMM*%
%LPD*%
G01*
G04 APERTURE LIST*
%TA.AperFunction,ComponentPad*%
%ADD10C,1.600000*%
%TD*%
%TA.AperFunction,ComponentPad*%
%ADD11R,2.000000X2.000000*%
%TD*%
%TA.AperFunction,ComponentPad*%
%ADD12C,2.000000*%
%TD*%
%TA.AperFunction,ComponentPad*%
%ADD13R,1.700000X1.700000*%
%TD*%
%TA.AperFunction,ComponentPad*%
%ADD14C,1.700000*%
%TD*%
%TA.AperFunction,ComponentPad*%
%ADD15C,1.500000*%
%TD*%
%TA.AperFunction,Conductor*%
%ADD16C,0.200000*%
%TD*%
G04 APERTURE END LIST*
D10*
%TO.P,10k_ohm1,1*%
%TO.N,Net-(BZ1--)*%
X100500000Y-80000000D03*
%TO.P,10k_ohm1,2*%
%TO.N,Net-(J1-Pin_6)*%
X108120000Y-80000000D03*
%TD*%
D11*
%TO.P,BZ1,1,+_1*%
%TO.N,Net-(BZ1-+)*%
X120800000Y-86500000D03*
D12*
%TO.P,BZ1,2,-_2*%
%TO.N,Net-(BZ1--)*%
X113200000Y-86500000D03*
%TD*%
D13*
%TO.P,J1,1,Pin_1_1*%
%TO.N,Net-(J1-Pin_1)*%
X93000000Y-86350000D03*
D14*
%TO.P,J1,2,Pin_2_2*%
%TO.N,unconnected-(J1-Pin_2-Pad2)*%
X93000000Y-83810000D03*
%TO.P,J1,3,Pin_3_3*%
%TO.N,Net-(BZ1--)*%
X93000000Y-81270000D03*
%TO.P,J1,4,Pin_4_4*%
%TO.N,Net-(BZ1-+)*%
X93000000Y-78730000D03*
%TO.P,J1,5,Pin_5_5*%
%TO.N,Net-(J1-Pin_5)*%
X93000000Y-76190000D03*
%TO.P,J1,6,Pin_6_6*%
%TO.N,Net-(J1-Pin_6)*%
X93000000Y-73650000D03*
%TD*%
D15*
%TO.P,R1,1*%
%TO.N,Net-(J1-Pin_1)*%
X103300000Y-89500000D03*
%TO.P,R1,2*%
%TO.N,Net-(J1-Pin_6)*%
X106700000Y-89500000D03*
%TD*%
D12*
%TO.P,SW1,1,1_1*%
%TO.N,Net-(J1-Pin_5)*%
X114750000Y-68500000D03*
X121250000Y-68500000D03*
%TO.P,SW1,2,2_2*%
%TO.N,Net-(BZ1--)*%
X114750000Y-73000000D03*
X121250000Y-73000000D03*
%TD*%
%TO.N,Net-(BZ1--)*%
D16*
X96500000Y-77000000D02*
X96500000Y-80000000D01*
X113200000Y-86500000D02*
X109150000Y-90550000D01*
X99000000Y-74500000D02*
X96500000Y-77000000D01*
X96500000Y-80000000D02*
X94270000Y-80000000D01*
X109150000Y-90550000D02*
X106265075Y-90550000D01*
X114750000Y-73000000D02*
X113250000Y-74500000D01*
X94270000Y-80000000D02*
X93000000Y-81270000D01*
X100500000Y-80000000D02*
X96500000Y-80000000D01*
X114750000Y-73000000D02*
X121250000Y-73000000D01*
X106265075Y-90550000D02*
X96500000Y-80784925D01*
X96500000Y-80784925D02*
X96500000Y-80000000D01*
X113250000Y-74500000D02*
X99000000Y-74500000D01*
%TO.N,Net-(J1-Pin_6)*%
X106700000Y-81420000D02*
X120580000Y-81420000D01*
X106700000Y-81420000D02*
X108120000Y-80000000D01*
X124500000Y-77500000D02*
X124500000Y-71500000D01*
X120580000Y-81420000D02*
X124500000Y-77500000D01*
X124500000Y-71500000D02*
X124000000Y-71000000D01*
X106700000Y-89500000D02*
X106700000Y-81420000D01*
X124000000Y-71000000D02*
X95650000Y-71000000D01*
X95650000Y-71000000D02*
X93000000Y-73650000D01*
%TO.N,Net-(BZ1-+)*%
X88000000Y-83730000D02*
X93000000Y-78730000D01*
X120800000Y-86500000D02*
X115800000Y-91500000D01*
X115800000Y-91500000D02*
X91500000Y-91500000D01*
X91500000Y-91500000D02*
X88000000Y-88000000D01*
X88000000Y-88000000D02*
X88000000Y-83730000D01*
%TO.N,Net-(J1-Pin_1)*%
X96150000Y-89500000D02*
X93000000Y-86350000D01*
X103300000Y-89500000D02*
X96150000Y-89500000D01*
%TO.N,Net-(J1-Pin_5)*%
X89690000Y-76190000D02*
X93000000Y-76190000D01*
X89000000Y-75500000D02*
X89690000Y-76190000D01*
X89000000Y-71000000D02*
X89000000Y-75500000D01*
X114750000Y-68500000D02*
X113250000Y-70000000D01*
X114750000Y-68500000D02*
X121250000Y-68500000D01*
X90000000Y-70000000D02*
X89000000Y-71000000D01*
X113250000Y-70000000D02*
X90000000Y-70000000D01*
%TD*%
M02*
