<?xml version="1.0" standalone="no"?>
 <!DOCTYPE svg PUBLIC "-//W3C//DTD SVG 1.1//EN" 
 "http://www.w3.org/Graphics/SVG/1.1/DTD/svg11.dtd"> 
<svg
  xmlns:svg="http://www.w3.org/2000/svg"
  xmlns="http://www.w3.org/2000/svg"
  xmlns:xlink="http://www.w3.org/1999/xlink"
  xmlns:inkscape="http://www.inkscape.org/namespaces/inkscape"
  version="1.1"
  width="297.0022mm" height="210.0072mm" viewBox="0.0000 0.0000 297.0022 210.0072">
<title>SVG Image created as esp32-laser-security-Edge_Cuts.svg date 2026-06-17T23:37:14 </title>
  <desc>Image generated by PCBNEW </desc>
<g style="fill:#000000; fill-opacity:1.0000;stroke:#000000; stroke-opacity:1.0000;
stroke-linecap:round; stroke-linejoin:round;"
 transform="translate(0 0) scale(1 1)">
<path style="fill:none; 
stroke:#000000; stroke-width:0.0500; stroke-opacity:1; 
stroke-linecap:round; stroke-linejoin:round;fill:none"
d="M 116.0000,74.0000
116.0005,73.9372
116.0084,73.8117
116.0241,73.6871
116.0477,73.5636
116.0789,73.4419
116.1178,73.3224
116.1640,73.2055
116.2175,73.0918
116.2781,72.9817
116.3454,72.8756
116.4193,72.7739
116.4994,72.6770
116.5854,72.5854
116.6770,72.4994
116.7739,72.4193
116.8756,72.3454
116.9817,72.2781
117.0918,72.2175
117.2055,72.1640
117.3224,72.1178
117.4419,72.0789
117.5636,72.0477
117.6871,72.0241
117.8117,72.0084
117.9372,72.0005
118.0000,72.0000
177.5000,72.0000
177.5628,72.0005
177.6883,72.0084
177.8129,72.0241
177.9364,72.0477
178.0581,72.0789
178.1776,72.1178
178.2945,72.1640
178.4082,72.2175
178.5183,72.2781
178.6244,72.3454
178.7261,72.4193
178.8229,72.4994
178.9146,72.5854
179.0006,72.6770
179.0807,72.7739
179.1546,72.8756
179.2219,72.9817
179.2825,73.0918
179.3360,73.2055
179.3822,73.3224
179.4211,73.4419
179.4523,73.5636
179.4759,73.6871
179.4916,73.8117
179.4995,73.9372
179.5000,74.0000
179.5000,122.0000
179.4995,122.0628
179.4916,122.1883
179.4759,122.3129
179.4523,122.4364
179.4211,122.5581
179.3822,122.6776
179.3360,122.7945
179.2825,122.9082
179.2219,123.0183
179.1546,123.1244
179.0807,123.2261
179.0006,123.3229
178.9146,123.4146
178.8229,123.5006
178.7261,123.5807
178.6244,123.6546
178.5183,123.7219
178.4082,123.7825
178.2945,123.8360
178.1776,123.8822
178.0581,123.9211
177.9364,123.9523
177.8129,123.9759
177.6883,123.9916
177.5628,123.9995
177.5000,124.0000
118.0000,124.0000
117.9372,123.9995
117.8117,123.9916
117.6871,123.9759
117.5636,123.9523
117.4419,123.9211
117.3224,123.8822
117.2055,123.8360
117.0918,123.7825
116.9817,123.7219
116.8756,123.6546
116.7739,123.5807
116.6770,123.5006
116.5854,123.4146
116.4994,123.3229
116.4193,123.2261
116.3454,123.1244
116.2781,123.0183
116.2175,122.9082
116.1640,122.7945
116.1178,122.6776
116.0789,122.5581
116.0477,122.4364
116.0241,122.3129
116.0084,122.1883
116.0005,122.0628
116.0000,122.0000
Z" /> 
</g>
<g style="fill:#000000; fill-opacity:1.0000; stroke:none;">
<circle cx="160.8800" cy="101.5000" r="0.8000" /> 
<circle cx="160.8800" cy="93.8800" r="0.8000" /> 
<path style="fill:#000000; fill-opacity:1.0000; stroke:none;fill-rule:evenodd;"
d="M 123.1500,90.8500
123.1500,89.1500
124.8500,89.1500
124.8500,90.8500
Z" /> 
<circle cx="124.0000" cy="92.5400" r="0.8500" /> 
<circle cx="124.0000" cy="95.0800" r="0.8500" /> 
<circle cx="124.0000" cy="97.6200" r="0.8500" /> 
<circle cx="124.0000" cy="100.1600" r="0.8500" /> 
<circle cx="124.0000" cy="102.7000" r="0.8500" /> 
<circle cx="124.0000" cy="105.2400" r="0.8500" /> 
<circle cx="131.3800" cy="101.0000" r="0.8000" /> 
<circle cx="139.0000" cy="101.0000" r="0.8000" /> 
<circle cx="145.3800" cy="94.0000" r="0.8000" /> 
<circle cx="145.3800" cy="101.6200" r="0.8000" /> 
<circle cx="146.1895" cy="114.0962" r="0.7500" /> 
<circle cx="149.5895" cy="114.0962" r="0.7500" /> 
<path style="fill:#000000; fill-opacity:1.0000; stroke:none;fill-rule:evenodd;"
d="M 171.5417,100.9444
171.4460,100.9254
171.3649,100.8712
171.3107,100.7901
171.2917,100.6944
171.2917,98.3944
171.3107,98.2988
171.3649,98.2177
171.4460,98.1635
171.5417,98.1444
173.8417,98.1444
173.9374,98.1635
174.0185,98.2177
174.0727,98.2988
174.0917,98.3944
174.0917,100.6944
174.0727,100.7901
174.0185,100.8712
173.9374,100.9254
173.8417,100.9444
Z" /> 
<circle cx="172.6917" cy="94.5444" r="1.4000" /> 
<path style="fill:#000000; fill-opacity:1.0000; stroke:none;fill-rule:evenodd;"
d="M 141.6500,84.2750
141.6690,84.1793
141.7232,84.0982
141.8043,84.0440
141.9000,84.0250
143.1000,84.0250
143.1957,84.0440
143.2768,84.0982
143.3310,84.1793
143.3500,84.2750
143.3500,85.7250
143.3310,85.8207
143.2768,85.9018
143.1957,85.9560
143.1000,85.9750
141.9000,85.9750
141.8043,85.9560
141.7232,85.9018
141.6690,85.8207
141.6500,85.7250
Z" /> 
</g>
<g style="fill:none; 
stroke:#000000; stroke-width:1.7000; stroke-opacity:1; 
stroke-linecap:round; stroke-linejoin:round;">
<path d="M145.0000 84.8750
L145.0000 85.1250
" />
<path d="M147.5000 84.8750
L147.5000 85.1250
" />
</g>
<g style="fill:#000000; fill-opacity:1.0000; stroke:none;">
<circle cx="159.5000" cy="83.5000" r="1.0000" /> 
<circle cx="166.0000" cy="83.5000" r="1.0000" /> 
<circle cx="159.5000" cy="88.0000" r="1.0000" /> 
<circle cx="166.0000" cy="88.0000" r="1.0000" /> 
<circle cx="131.3800" cy="94.5000" r="0.8000" /> 
<circle cx="139.0000" cy="94.5000" r="0.8000" /> 
<circle cx="153.6200" cy="93.8800" r="0.8000" /> 
<circle cx="153.6200" cy="101.5000" r="0.8000" /> 
<path style="fill:#000000; fill-opacity:1.0000; stroke:none;fill-rule:evenodd;"
d="M 129.0200,86.9000
129.0200,85.1000
130.8200,85.1000
130.8200,86.9000
Z" /> 
<circle cx="132.4600" cy="86.0000" r="0.9000" /> 
<circle cx="135.0000" cy="86.0000" r="0.9000" /> 
</g>
<g style="fill:none; 
stroke:#000000; stroke-width:0.2000; stroke-opacity:1; 
stroke-linecap:round; stroke-linejoin:round;">
<path d="M121.5000 104.0000
L121.5000 92.5000
" />
<path d="M139.0000 101.0000
L139.0000 103.5067
" />
<path d="M121.5000 92.5000
L124.0000 90.0000
" />
<path d="M139.7467 104.2533
L139.4933 104.0000
" />
<path d="M149.5895 114.0962
L139.7467 104.2533
" />
<path d="M139.4933 104.0000
L121.5000 104.0000
" />
<path d="M139.0000 103.5067
L139.7467 104.2533
" />
<path d="M127.5000 82.5000
L127.5000 92.5000
" />
<path d="M159.5000 83.5000
L159.5000 82.5000
" />
<path d="M159.5000 82.5000
L156.5000 79.5000
" />
<path d="M127.0000 92.5000
L126.9600 92.5400
" />
<path d="M127.5000 92.5000
L127.0000 92.5000
" />
<path d="M156.5000 79.5000
L130.5000 79.5000
" />
<path d="M130.5000 79.5000
L127.5000 82.5000
" />
<path d="M126.9600 92.5400
L124.0000 92.5400
" />
<path d="M159.5000 83.5000
L166.0000 83.5000
" />
<path d="M131.3800 101.0000
L130.2800 99.9000
" />
<path d="M159.5000 88.0000
L157.5000 88.0000
" />
<path d="M147.5800 96.5000
L147.5000 96.4200
" />
<path d="M157.5000 88.0000
L149.0800 96.4200
" />
<path d="M138.6356 96.4200
L130.2800 96.4200
" />
<path d="M147.5000 85.0000
L147.5000 87.5556
" />
<path d="M149.0800 96.4200
L147.5000 96.4200
" />
<path d="M147.5000 96.4200
L138.6356 96.4200
" />
<path d="M130.2800 99.9000
L130.2800 96.4200
" />
<path d="M124.0000 102.7000
L130.2800 96.4200
" />
<path d="M130.2800 90.7200
L135.0000 86.0000
" />
<path d="M170.7362 96.5000
L147.5800 96.5000
" />
<path d="M166.0000 88.0000
L159.5000 88.0000
" />
<path d="M172.6917 94.5444
L170.7362 96.5000
" />
<path d="M147.5000 87.5556
L138.6356 96.4200
" />
<path d="M130.2800 96.4200
L130.2800 90.7200
" />
<path d="M146.1895 114.0962
L137.3333 105.2400
" />
<path d="M137.3333 105.2400
L124.0000 105.2400
" />
<path d="M150.5000 88.8800
L145.3800 94.0000
" />
<path d="M149.5000 82.5000
L150.5000 83.5000
" />
<path d="M150.5000 83.5000
L150.5000 88.8800
" />
<path d="M145.0000 83.5000
L146.0000 82.5000
" />
<path d="M146.0000 82.5000
L149.5000 82.5000
" />
<path d="M145.0000 85.0000
L145.0000 83.5000
" />
<text x="117.5000" y="95.7300"
textLength="4.3524" font-size="1.3333" lengthAdjust="spacingAndGlyphs"
text-anchor="start" opacity="0" stroke-opacity="0">BUZZ</text>
<g class="stroked-text"><desc>BUZZ</desc>
<path d="M118.2030 95.0734
L118.3459 95.1210
" />
<path d="M118.3459 95.1210
L118.3935 95.1686
" />
<path d="M118.3935 95.1686
L118.4411 95.2639
" />
<path d="M118.4411 95.2639
L118.4411 95.4067
" />
<path d="M118.4411 95.4067
L118.3935 95.5020
" />
<path d="M118.3935 95.5020
L118.3459 95.5496
" />
<path d="M118.3459 95.5496
L118.2506 95.5972
" />
<path d="M118.2506 95.5972
L117.8697 95.5972
" />
<path d="M117.8697 95.5972
L117.8697 94.5972
" />
<path d="M117.8697 94.5972
L118.2030 94.5972
" />
<path d="M118.2030 94.5972
L118.2982 94.6448
" />
<path d="M118.2982 94.6448
L118.3459 94.6925
" />
<path d="M118.3459 94.6925
L118.3935 94.7877
" />
<path d="M118.3935 94.7877
L118.3935 94.8829
" />
<path d="M118.3935 94.8829
L118.3459 94.9782
" />
<path d="M118.3459 94.9782
L118.2982 95.0258
" />
<path d="M118.2982 95.0258
L118.2030 95.0734
" />
<path d="M118.2030 95.0734
L117.8697 95.0734
" />
<path d="M118.8697 94.5972
L118.8697 95.4067
" />
<path d="M118.8697 95.4067
L118.9173 95.5020
" />
<path d="M118.9173 95.5020
L118.9649 95.5496
" />
<path d="M118.9649 95.5496
L119.0601 95.5972
" />
<path d="M119.0601 95.5972
L119.2506 95.5972
" />
<path d="M119.2506 95.5972
L119.3459 95.5496
" />
<path d="M119.3459 95.5496
L119.3935 95.5020
" />
<path d="M119.3935 95.5020
L119.4411 95.4067
" />
<path d="M119.4411 95.4067
L119.4411 94.5972
" />
<path d="M119.8221 94.5972
L120.4887 94.5972
" />
<path d="M120.4887 94.5972
L119.8221 95.5972
" />
<path d="M119.8221 95.5972
L120.4887 95.5972
" />
<path d="M120.7744 94.5972
L121.4411 94.5972
" />
<path d="M121.4411 94.5972
L120.7744 95.5972
" />
<path d="M120.7744 95.5972
L121.4411 95.5972
" />
</g><text x="118.5000" y="90.7300"
textLength="3.2095" font-size="1.3333" lengthAdjust="spacingAndGlyphs"
text-anchor="start" opacity="0" stroke-opacity="0">LDR</text>
<g class="stroked-text"><desc>LDR</desc>
<path d="M119.3459 90.5972
L118.8697 90.5972
" />
<path d="M118.8697 90.5972
L118.8697 89.5972
" />
<path d="M119.6792 90.5972
L119.6792 89.5972
" />
<path d="M119.6792 89.5972
L119.9173 89.5972
" />
<path d="M119.9173 89.5972
L120.0601 89.6448
" />
<path d="M120.0601 89.6448
L120.1554 89.7401
" />
<path d="M120.1554 89.7401
L120.2030 89.8353
" />
<path d="M120.2030 89.8353
L120.2506 90.0258
" />
<path d="M120.2506 90.0258
L120.2506 90.1686
" />
<path d="M120.2506 90.1686
L120.2030 90.3591
" />
<path d="M120.2030 90.3591
L120.1554 90.4544
" />
<path d="M120.1554 90.4544
L120.0601 90.5496
" />
<path d="M120.0601 90.5496
L119.9173 90.5972
" />
<path d="M119.9173 90.5972
L119.6792 90.5972
" />
<path d="M121.2506 90.5972
L120.9173 90.1210
" />
<path d="M120.6792 90.5972
L120.6792 89.5972
" />
<path d="M120.6792 89.5972
L121.0601 89.5972
" />
<path d="M121.0601 89.5972
L121.1554 89.6448
" />
<path d="M121.1554 89.6448
L121.2030 89.6925
" />
<path d="M121.2030 89.6925
L121.2506 89.7877
" />
<path d="M121.2506 89.7877
L121.2506 89.9306
" />
<path d="M121.2506 89.9306
L121.2030 90.0258
" />
<path d="M121.2030 90.0258
L121.1554 90.0734
" />
<path d="M121.1554 90.0734
L121.0601 90.1210
" />
<path d="M121.0601 90.1210
L120.6792 90.1210
" />
</g><text x="118.5000" y="93.2300"
textLength="3.1143" font-size="1.3333" lengthAdjust="spacingAndGlyphs"
text-anchor="start" opacity="0" stroke-opacity="0">RST</text>
<g class="stroked-text"><desc>RST</desc>
<path d="M119.4411 93.0972
L119.1078 92.6210
" />
<path d="M118.8697 93.0972
L118.8697 92.0972
" />
<path d="M118.8697 92.0972
L119.2506 92.0972
" />
<path d="M119.2506 92.0972
L119.3459 92.1448
" />
<path d="M119.3459 92.1448
L119.3935 92.1925
" />
<path d="M119.3935 92.1925
L119.4411 92.2877
" />
<path d="M119.4411 92.2877
L119.4411 92.4306
" />
<path d="M119.4411 92.4306
L119.3935 92.5258
" />
<path d="M119.3935 92.5258
L119.3459 92.5734
" />
<path d="M119.3459 92.5734
L119.2506 92.6210
" />
<path d="M119.2506 92.6210
L118.8697 92.6210
" />
<path d="M119.8221 93.0496
L119.9649 93.0972
" />
<path d="M119.9649 93.0972
L120.2030 93.0972
" />
<path d="M120.2030 93.0972
L120.2982 93.0496
" />
<path d="M120.2982 93.0496
L120.3459 93.0020
" />
<path d="M120.3459 93.0020
L120.3935 92.9067
" />
<path d="M120.3935 92.9067
L120.3935 92.8115
" />
<path d="M120.3935 92.8115
L120.3459 92.7163
" />
<path d="M120.3459 92.7163
L120.2982 92.6686
" />
<path d="M120.2982 92.6686
L120.2030 92.6210
" />
<path d="M120.2030 92.6210
L120.0125 92.5734
" />
<path d="M120.0125 92.5734
L119.9173 92.5258
" />
<path d="M119.9173 92.5258
L119.8697 92.4782
" />
<path d="M119.8697 92.4782
L119.8221 92.3829
" />
<path d="M119.8221 92.3829
L119.8221 92.2877
" />
<path d="M119.8221 92.2877
L119.8697 92.1925
" />
<path d="M119.8697 92.1925
L119.9173 92.1448
" />
<path d="M119.9173 92.1448
L120.0125 92.0972
" />
<path d="M120.0125 92.0972
L120.2506 92.0972
" />
<path d="M120.2506 92.0972
L120.3935 92.1448
" />
<path d="M120.6792 92.0972
L121.2506 92.0972
" />
<path d="M120.9649 93.0972
L120.9649 92.0972
" />
</g><text x="118.5000" y="98.5000"
textLength="3.4476" font-size="1.3333" lengthAdjust="spacingAndGlyphs"
text-anchor="start" opacity="0" stroke-opacity="0">GRN</text>
<g class="stroked-text"><desc>GRN</desc>
<path d="M119.3935 97.4148
L119.2982 97.3672
" />
<path d="M119.2982 97.3672
L119.1554 97.3672
" />
<path d="M119.1554 97.3672
L119.0125 97.4148
" />
<path d="M119.0125 97.4148
L118.9173 97.5101
" />
<path d="M118.9173 97.5101
L118.8697 97.6053
" />
<path d="M118.8697 97.6053
L118.8221 97.7958
" />
<path d="M118.8221 97.7958
L118.8221 97.9386
" />
<path d="M118.8221 97.9386
L118.8697 98.1291
" />
<path d="M118.8697 98.1291
L118.9173 98.2244
" />
<path d="M118.9173 98.2244
L119.0125 98.3196
" />
<path d="M119.0125 98.3196
L119.1554 98.3672
" />
<path d="M119.1554 98.3672
L119.2506 98.3672
" />
<path d="M119.2506 98.3672
L119.3935 98.3196
" />
<path d="M119.3935 98.3196
L119.4411 98.2720
" />
<path d="M119.4411 98.2720
L119.4411 97.9386
" />
<path d="M119.4411 97.9386
L119.2506 97.9386
" />
<path d="M120.4411 98.3672
L120.1078 97.8910
" />
<path d="M119.8697 98.3672
L119.8697 97.3672
" />
<path d="M119.8697 97.3672
L120.2506 97.3672
" />
<path d="M120.2506 97.3672
L120.3459 97.4148
" />
<path d="M120.3459 97.4148
L120.3935 97.4625
" />
<path d="M120.3935 97.4625
L120.4411 97.5577
" />
<path d="M120.4411 97.5577
L120.4411 97.7006
" />
<path d="M120.4411 97.7006
L120.3935 97.7958
" />
<path d="M120.3935 97.7958
L120.3459 97.8434
" />
<path d="M120.3459 97.8434
L120.2506 97.8910
" />
<path d="M120.2506 97.8910
L119.8697 97.8910
" />
<path d="M120.8697 98.3672
L120.8697 97.3672
" />
<path d="M120.8697 97.3672
L121.4411 98.3672
" />
<path d="M121.4411 98.3672
L121.4411 97.3672
" />
</g><text x="118.5000" y="101.0400"
textLength="3.3048" font-size="1.3333" lengthAdjust="spacingAndGlyphs"
text-anchor="start" opacity="0" stroke-opacity="0">RED</text>
<g class="stroked-text"><desc>RED</desc>
<path d="M119.4411 100.9072
L119.1078 100.4310
" />
<path d="M118.8697 100.9072
L118.8697 99.9072
" />
<path d="M118.8697 99.9072
L119.2506 99.9072
" />
<path d="M119.2506 99.9072
L119.3459 99.9548
" />
<path d="M119.3459 99.9548
L119.3935 100.0025
" />
<path d="M119.3935 100.0025
L119.4411 100.0977
" />
<path d="M119.4411 100.0977
L119.4411 100.2406
" />
<path d="M119.4411 100.2406
L119.3935 100.3358
" />
<path d="M119.3935 100.3358
L119.3459 100.3834
" />
<path d="M119.3459 100.3834
L119.2506 100.4310
" />
<path d="M119.2506 100.4310
L118.8697 100.4310
" />
<path d="M119.8697 100.3834
L120.2030 100.3834
" />
<path d="M120.3459 100.9072
L119.8697 100.9072
" />
<path d="M119.8697 100.9072
L119.8697 99.9072
" />
<path d="M119.8697 99.9072
L120.3459 99.9072
" />
<path d="M120.7744 100.9072
L120.7744 99.9072
" />
<path d="M120.7744 99.9072
L121.0125 99.9072
" />
<path d="M121.0125 99.9072
L121.1554 99.9548
" />
<path d="M121.1554 99.9548
L121.2506 100.0501
" />
<path d="M121.2506 100.0501
L121.2982 100.1453
" />
<path d="M121.2982 100.1453
L121.3459 100.3358
" />
<path d="M121.3459 100.3358
L121.3459 100.4786
" />
<path d="M121.3459 100.4786
L121.2982 100.6691
" />
<path d="M121.2982 100.6691
L121.2506 100.7644
" />
<path d="M121.2506 100.7644
L121.1554 100.8596
" />
<path d="M121.1554 100.8596
L121.0125 100.9072
" />
<path d="M121.0125 100.9072
L120.7744 100.9072
" />
</g><text x="118.5000" y="103.2300"
textLength="3.4476" font-size="1.3333" lengthAdjust="spacingAndGlyphs"
text-anchor="start" opacity="0" stroke-opacity="0">GND</text>
<g class="stroked-text"><desc>GND</desc>
<path d="M119.3935 102.1448
L119.2982 102.0972
" />
<path d="M119.2982 102.0972
L119.1554 102.0972
" />
<path d="M119.1554 102.0972
L119.0125 102.1448
" />
<path d="M119.0125 102.1448
L118.9173 102.2401
" />
<path d="M118.9173 102.2401
L118.8697 102.3353
" />
<path d="M118.8697 102.3353
L118.8221 102.5258
" />
<path d="M118.8221 102.5258
L118.8221 102.6686
" />
<path d="M118.8221 102.6686
L118.8697 102.8591
" />
<path d="M118.8697 102.8591
L118.9173 102.9544
" />
<path d="M118.9173 102.9544
L119.0125 103.0496
" />
<path d="M119.0125 103.0496
L119.1554 103.0972
" />
<path d="M119.1554 103.0972
L119.2506 103.0972
" />
<path d="M119.2506 103.0972
L119.3935 103.0496
" />
<path d="M119.3935 103.0496
L119.4411 103.0020
" />
<path d="M119.4411 103.0020
L119.4411 102.6686
" />
<path d="M119.4411 102.6686
L119.2506 102.6686
" />
<path d="M119.8697 103.0972
L119.8697 102.0972
" />
<path d="M119.8697 102.0972
L120.4411 103.0972
" />
<path d="M120.4411 103.0972
L120.4411 102.0972
" />
<path d="M120.9173 103.0972
L120.9173 102.0972
" />
<path d="M120.9173 102.0972
L121.1554 102.0972
" />
<path d="M121.1554 102.0972
L121.2982 102.1448
" />
<path d="M121.2982 102.1448
L121.3935 102.2401
" />
<path d="M121.3935 102.2401
L121.4411 102.3353
" />
<path d="M121.4411 102.3353
L121.4887 102.5258
" />
<path d="M121.4887 102.5258
L121.4887 102.6686
" />
<path d="M121.4887 102.6686
L121.4411 102.8591
" />
<path d="M121.4411 102.8591
L121.3935 102.9544
" />
<path d="M121.3935 102.9544
L121.2982 103.0496
" />
<path d="M121.2982 103.0496
L121.1554 103.0972
" />
<path d="M121.1554 103.0972
L120.9173 103.0972
" />
</g><text x="118.5000" y="105.7300"
textLength="3.1619" font-size="1.3333" lengthAdjust="spacingAndGlyphs"
text-anchor="start" opacity="0" stroke-opacity="0">3V3</text>
<g class="stroked-text"><desc>3V3</desc>
<path d="M118.7744 104.5972
L119.3935 104.5972
" />
<path d="M119.3935 104.5972
L119.0601 104.9782
" />
<path d="M119.0601 104.9782
L119.2030 104.9782
" />
<path d="M119.2030 104.9782
L119.2982 105.0258
" />
<path d="M119.2982 105.0258
L119.3459 105.0734
" />
<path d="M119.3459 105.0734
L119.3935 105.1686
" />
<path d="M119.3935 105.1686
L119.3935 105.4067
" />
<path d="M119.3935 105.4067
L119.3459 105.5020
" />
<path d="M119.3459 105.5020
L119.2982 105.5496
" />
<path d="M119.2982 105.5496
L119.2030 105.5972
" />
<path d="M119.2030 105.5972
L118.9173 105.5972
" />
<path d="M118.9173 105.5972
L118.8221 105.5496
" />
<path d="M118.8221 105.5496
L118.7744 105.5020
" />
<path d="M119.6792 104.5972
L120.0125 105.5972
" />
<path d="M120.0125 105.5972
L120.3459 104.5972
" />
<path d="M120.5840 104.5972
L121.2030 104.5972
" />
<path d="M121.2030 104.5972
L120.8697 104.9782
" />
<path d="M120.8697 104.9782
L121.0125 104.9782
" />
<path d="M121.0125 104.9782
L121.1078 105.0258
" />
<path d="M121.1078 105.0258
L121.1554 105.0734
" />
<path d="M121.1554 105.0734
L121.2030 105.1686
" />
<path d="M121.2030 105.1686
L121.2030 105.4067
" />
<path d="M121.2030 105.4067
L121.1554 105.5020
" />
<path d="M121.1554 105.5020
L121.1078 105.5496
" />
<path d="M121.1078 105.5496
L121.0125 105.5972
" />
<path d="M121.0125 105.5972
L120.7268 105.5972
" />
<path d="M120.7268 105.5972
L120.6316 105.5496
" />
<path d="M120.6316 105.5496
L120.5840 105.5020
" />
</g><text x="129.5000" y="91.0000"
textLength="1.4000" font-size="1.3333" lengthAdjust="spacingAndGlyphs"
text-anchor="start" opacity="0" stroke-opacity="0">R</text>
<g class="stroked-text"><desc>R</desc>
<path d="M130.4411 90.8672
L130.1078 90.3910
" />
<path d="M129.8697 90.8672
L129.8697 89.8672
" />
<path d="M129.8697 89.8672
L130.2506 89.8672
" />
<path d="M130.2506 89.8672
L130.3459 89.9148
" />
<path d="M130.3459 89.9148
L130.3935 89.9625
" />
<path d="M130.3935 89.9625
L130.4411 90.0577
" />
<path d="M130.4411 90.0577
L130.4411 90.2006
" />
<path d="M130.4411 90.2006
L130.3935 90.2958
" />
<path d="M130.3935 90.2958
L130.3459 90.3434
" />
<path d="M130.3459 90.3434
L130.2506 90.3910
" />
<path d="M130.2506 90.3910
L129.8697 90.3910
" />
</g><text x="132.0000" y="91.0000"
textLength="1.4000" font-size="1.3333" lengthAdjust="spacingAndGlyphs"
text-anchor="start" opacity="0" stroke-opacity="0">G</text>
<g class="stroked-text"><desc>G</desc>
<path d="M132.8935 89.9148
L132.7982 89.8672
" />
<path d="M132.7982 89.8672
L132.6554 89.8672
" />
<path d="M132.6554 89.8672
L132.5125 89.9148
" />
<path d="M132.5125 89.9148
L132.4173 90.0101
" />
<path d="M132.4173 90.0101
L132.3697 90.1053
" />
<path d="M132.3697 90.1053
L132.3221 90.2958
" />
<path d="M132.3221 90.2958
L132.3221 90.4386
" />
<path d="M132.3221 90.4386
L132.3697 90.6291
" />
<path d="M132.3697 90.6291
L132.4173 90.7244
" />
<path d="M132.4173 90.7244
L132.5125 90.8196
" />
<path d="M132.5125 90.8196
L132.6554 90.8672
" />
<path d="M132.6554 90.8672
L132.7506 90.8672
" />
<path d="M132.7506 90.8672
L132.8935 90.8196
" />
<path d="M132.8935 90.8196
L132.9411 90.7720
" />
<path d="M132.9411 90.7720
L132.9411 90.4386
" />
<path d="M132.9411 90.4386
L132.7506 90.4386
" />
</g><text x="134.5000" y="91.0000"
textLength="1.6381" font-size="1.3333" lengthAdjust="spacingAndGlyphs"
text-anchor="start" opacity="0" stroke-opacity="0">-</text>
<g class="stroked-text"><desc>-</desc>
<path d="M134.8697 90.4863
L135.6316 90.4863
" />
</g><text x="142.0000" y="90.5000"
textLength="1.4000" font-size="1.3333" lengthAdjust="spacingAndGlyphs"
text-anchor="start" opacity="0" stroke-opacity="0">R</text>
<g class="stroked-text"><desc>R</desc>
<path d="M142.9411 90.3672
L142.6078 89.8910
" />
<path d="M142.3697 90.3672
L142.3697 89.3672
" />
<path d="M142.3697 89.3672
L142.7506 89.3672
" />
<path d="M142.7506 89.3672
L142.8459 89.4148
" />
<path d="M142.8459 89.4148
L142.8935 89.4625
" />
<path d="M142.8935 89.4625
L142.9411 89.5577
" />
<path d="M142.9411 89.5577
L142.9411 89.7006
" />
<path d="M142.9411 89.7006
L142.8935 89.7958
" />
<path d="M142.8935 89.7958
L142.8459 89.8434
" />
<path d="M142.8459 89.8434
L142.7506 89.8910
" />
<path d="M142.7506 89.8910
L142.3697 89.8910
" />
</g><text x="144.5000" y="90.5000"
textLength="1.4000" font-size="1.3333" lengthAdjust="spacingAndGlyphs"
text-anchor="start" opacity="0" stroke-opacity="0">G</text>
<g class="stroked-text"><desc>G</desc>
<path d="M145.3935 89.4148
L145.2982 89.3672
" />
<path d="M145.2982 89.3672
L145.1554 89.3672
" />
<path d="M145.1554 89.3672
L145.0125 89.4148
" />
<path d="M145.0125 89.4148
L144.9173 89.5101
" />
<path d="M144.9173 89.5101
L144.8697 89.6053
" />
<path d="M144.8697 89.6053
L144.8221 89.7958
" />
<path d="M144.8221 89.7958
L144.8221 89.9386
" />
<path d="M144.8221 89.9386
L144.8697 90.1291
" />
<path d="M144.8697 90.1291
L144.9173 90.2244
" />
<path d="M144.9173 90.2244
L145.0125 90.3196
" />
<path d="M145.0125 90.3196
L145.1554 90.3672
" />
<path d="M145.1554 90.3672
L145.2506 90.3672
" />
<path d="M145.2506 90.3672
L145.3935 90.3196
" />
<path d="M145.3935 90.3196
L145.4411 90.2720
" />
<path d="M145.4411 90.2720
L145.4411 89.9386
" />
<path d="M145.4411 89.9386
L145.2506 89.9386
" />
</g><text x="147.0000" y="90.0000"
textLength="1.6381" font-size="1.3333" lengthAdjust="spacingAndGlyphs"
text-anchor="start" opacity="0" stroke-opacity="0">-</text>
<g class="stroked-text"><desc>-</desc>
<path d="M147.3697 89.4863
L148.1316 89.4863
" />
</g><text x="158.5000" y="81.5000"
textLength="1.6381" font-size="1.3333" lengthAdjust="spacingAndGlyphs"
text-anchor="start" opacity="0" stroke-opacity="0">+</text>
<g class="stroked-text"><desc>+</desc>
<path d="M158.8697 80.9863
L159.6316 80.9863
" />
<path d="M159.2506 81.3672
L159.2506 80.6053
" />
</g><text x="158.5000" y="90.5000"
textLength="1.6381" font-size="1.3333" lengthAdjust="spacingAndGlyphs"
text-anchor="start" opacity="0" stroke-opacity="0">-</text>
<g class="stroked-text"><desc>-</desc>
<path d="M158.8697 89.9863
L159.6316 89.9863
" />
</g><text x="166.5000" y="94.5000"
textLength="1.6381" font-size="1.3333" lengthAdjust="spacingAndGlyphs"
text-anchor="start" opacity="0" stroke-opacity="0">-</text>
<g class="stroked-text"><desc>-</desc>
<path d="M166.8697 93.9863
L167.6316 93.9863
" />
</g><text x="166.5000" y="100.0000"
textLength="1.6381" font-size="1.3333" lengthAdjust="spacingAndGlyphs"
text-anchor="start" opacity="0" stroke-opacity="0">+</text>
<g class="stroked-text"><desc>+</desc>
<path d="M166.8697 99.4863
L167.6316 99.4863
" />
<path d="M167.2506 99.8672
L167.2506 99.1053
" />
</g><text x="133.5000" y="77.5000"
textLength="27.5143" font-size="2.0000" lengthAdjust="spacingAndGlyphs"
text-anchor="start" opacity="0" stroke-opacity="0">Laser_Security_ESP_PCB</text>
<g class="stroked-text"><desc>Laser_Security_ESP_PCB</desc>
<path d="M134.7030 77.3060
L133.9887 77.3060
" />
<path d="M133.9887 77.3060
L133.9887 75.8060
" />
<path d="M135.8459 77.3060
L135.8459 76.5203
" />
<path d="M135.8459 76.5203
L135.7744 76.3775
" />
<path d="M135.7744 76.3775
L135.6316 76.3060
" />
<path d="M135.6316 76.3060
L135.3459 76.3060
" />
<path d="M135.3459 76.3060
L135.2030 76.3775
" />
<path d="M135.8459 77.2346
L135.7030 77.3060
" />
<path d="M135.7030 77.3060
L135.3459 77.3060
" />
<path d="M135.3459 77.3060
L135.2030 77.2346
" />
<path d="M135.2030 77.2346
L135.1316 77.0917
" />
<path d="M135.1316 77.0917
L135.1316 76.9489
" />
<path d="M135.1316 76.9489
L135.2030 76.8060
" />
<path d="M135.2030 76.8060
L135.3459 76.7346
" />
<path d="M135.3459 76.7346
L135.7030 76.7346
" />
<path d="M135.7030 76.7346
L135.8459 76.6632
" />
<path d="M136.4887 77.2346
L136.6316 77.3060
" />
<path d="M136.6316 77.3060
L136.9173 77.3060
" />
<path d="M136.9173 77.3060
L137.0601 77.2346
" />
<path d="M137.0601 77.2346
L137.1316 77.0917
" />
<path d="M137.1316 77.0917
L137.1316 77.0203
" />
<path d="M137.1316 77.0203
L137.0601 76.8775
" />
<path d="M137.0601 76.8775
L136.9173 76.8060
" />
<path d="M136.9173 76.8060
L136.7030 76.8060
" />
<path d="M136.7030 76.8060
L136.5601 76.7346
" />
<path d="M136.5601 76.7346
L136.4887 76.5917
" />
<path d="M136.4887 76.5917
L136.4887 76.5203
" />
<path d="M136.4887 76.5203
L136.5601 76.3775
" />
<path d="M136.5601 76.3775
L136.7030 76.3060
" />
<path d="M136.7030 76.3060
L136.9173 76.3060
" />
<path d="M136.9173 76.3060
L137.0601 76.3775
" />
<path d="M138.3459 77.2346
L138.2030 77.3060
" />
<path d="M138.2030 77.3060
L137.9173 77.3060
" />
<path d="M137.9173 77.3060
L137.7744 77.2346
" />
<path d="M137.7744 77.2346
L137.7030 77.0917
" />
<path d="M137.7030 77.0917
L137.7030 76.5203
" />
<path d="M137.7030 76.5203
L137.7744 76.3775
" />
<path d="M137.7744 76.3775
L137.9173 76.3060
" />
<path d="M137.9173 76.3060
L138.2030 76.3060
" />
<path d="M138.2030 76.3060
L138.3459 76.3775
" />
<path d="M138.3459 76.3775
L138.4173 76.5203
" />
<path d="M138.4173 76.5203
L138.4173 76.6632
" />
<path d="M138.4173 76.6632
L137.7030 76.8060
" />
<path d="M139.0601 77.3060
L139.0601 76.3060
" />
<path d="M139.0601 76.5917
L139.1316 76.4489
" />
<path d="M139.1316 76.4489
L139.2030 76.3775
" />
<path d="M139.2030 76.3775
L139.3459 76.3060
" />
<path d="M139.3459 76.3060
L139.4887 76.3060
" />
<path d="M139.6316 77.4489
L140.7744 77.4489
" />
<path d="M141.0601 77.2346
L141.2744 77.3060
" />
<path d="M141.2744 77.3060
L141.6316 77.3060
" />
<path d="M141.6316 77.3060
L141.7744 77.2346
" />
<path d="M141.7744 77.2346
L141.8459 77.1632
" />
<path d="M141.8459 77.1632
L141.9173 77.0203
" />
<path d="M141.9173 77.0203
L141.9173 76.8775
" />
<path d="M141.9173 76.8775
L141.8459 76.7346
" />
<path d="M141.8459 76.7346
L141.7744 76.6632
" />
<path d="M141.7744 76.6632
L141.6316 76.5917
" />
<path d="M141.6316 76.5917
L141.3459 76.5203
" />
<path d="M141.3459 76.5203
L141.2030 76.4489
" />
<path d="M141.2030 76.4489
L141.1316 76.3775
" />
<path d="M141.1316 76.3775
L141.0601 76.2346
" />
<path d="M141.0601 76.2346
L141.0601 76.0917
" />
<path d="M141.0601 76.0917
L141.1316 75.9489
" />
<path d="M141.1316 75.9489
L141.2030 75.8775
" />
<path d="M141.2030 75.8775
L141.3459 75.8060
" />
<path d="M141.3459 75.8060
L141.7030 75.8060
" />
<path d="M141.7030 75.8060
L141.9173 75.8775
" />
<path d="M143.1316 77.2346
L142.9887 77.3060
" />
<path d="M142.9887 77.3060
L142.7030 77.3060
" />
<path d="M142.7030 77.3060
L142.5601 77.2346
" />
<path d="M142.5601 77.2346
L142.4887 77.0917
" />
<path d="M142.4887 77.0917
L142.4887 76.5203
" />
<path d="M142.4887 76.5203
L142.5601 76.3775
" />
<path d="M142.5601 76.3775
L142.7030 76.3060
" />
<path d="M142.7030 76.3060
L142.9887 76.3060
" />
<path d="M142.9887 76.3060
L143.1316 76.3775
" />
<path d="M143.1316 76.3775
L143.2030 76.5203
" />
<path d="M143.2030 76.5203
L143.2030 76.6632
" />
<path d="M143.2030 76.6632
L142.4887 76.8060
" />
<path d="M144.4887 77.2346
L144.3459 77.3060
" />
<path d="M144.3459 77.3060
L144.0601 77.3060
" />
<path d="M144.0601 77.3060
L143.9173 77.2346
" />
<path d="M143.9173 77.2346
L143.8459 77.1632
" />
<path d="M143.8459 77.1632
L143.7744 77.0203
" />
<path d="M143.7744 77.0203
L143.7744 76.5917
" />
<path d="M143.7744 76.5917
L143.8459 76.4489
" />
<path d="M143.8459 76.4489
L143.9173 76.3775
" />
<path d="M143.9173 76.3775
L144.0601 76.3060
" />
<path d="M144.0601 76.3060
L144.3459 76.3060
" />
<path d="M144.3459 76.3060
L144.4887 76.3775
" />
<path d="M145.7744 76.3060
L145.7744 77.3060
" />
<path d="M145.1316 76.3060
L145.1316 77.0917
" />
<path d="M145.1316 77.0917
L145.2030 77.2346
" />
<path d="M145.2030 77.2346
L145.3459 77.3060
" />
<path d="M145.3459 77.3060
L145.5601 77.3060
" />
<path d="M145.5601 77.3060
L145.7030 77.2346
" />
<path d="M145.7030 77.2346
L145.7744 77.1632
" />
<path d="M146.4887 77.3060
L146.4887 76.3060
" />
<path d="M146.4887 76.5917
L146.5601 76.4489
" />
<path d="M146.5601 76.4489
L146.6316 76.3775
" />
<path d="M146.6316 76.3775
L146.7744 76.3060
" />
<path d="M146.7744 76.3060
L146.9173 76.3060
" />
<path d="M147.4173 77.3060
L147.4173 76.3060
" />
<path d="M147.4173 75.8060
L147.3459 75.8775
" />
<path d="M147.3459 75.8775
L147.4173 75.9489
" />
<path d="M147.4173 75.9489
L147.4887 75.8775
" />
<path d="M147.4887 75.8775
L147.4173 75.8060
" />
<path d="M147.4173 75.8060
L147.4173 75.9489
" />
<path d="M147.9173 76.3060
L148.4887 76.3060
" />
<path d="M148.1316 75.8060
L148.1316 77.0917
" />
<path d="M148.1316 77.0917
L148.2030 77.2346
" />
<path d="M148.2030 77.2346
L148.3459 77.3060
" />
<path d="M148.3459 77.3060
L148.4887 77.3060
" />
<path d="M148.8459 76.3060
L149.2030 77.3060
" />
<path d="M149.5601 76.3060
L149.2030 77.3060
" />
<path d="M149.2030 77.3060
L149.0601 77.6632
" />
<path d="M149.0601 77.6632
L148.9887 77.7346
" />
<path d="M148.9887 77.7346
L148.8459 77.8060
" />
<path d="M149.7744 77.4489
L150.9173 77.4489
" />
<path d="M151.2744 76.5203
L151.7744 76.5203
" />
<path d="M151.9887 77.3060
L151.2744 77.3060
" />
<path d="M151.2744 77.3060
L151.2744 75.8060
" />
<path d="M151.2744 75.8060
L151.9887 75.8060
" />
<path d="M152.5601 77.2346
L152.7744 77.3060
" />
<path d="M152.7744 77.3060
L153.1316 77.3060
" />
<path d="M153.1316 77.3060
L153.2744 77.2346
" />
<path d="M153.2744 77.2346
L153.3459 77.1632
" />
<path d="M153.3459 77.1632
L153.4173 77.0203
" />
<path d="M153.4173 77.0203
L153.4173 76.8775
" />
<path d="M153.4173 76.8775
L153.3459 76.7346
" />
<path d="M153.3459 76.7346
L153.2744 76.6632
" />
<path d="M153.2744 76.6632
L153.1316 76.5917
" />
<path d="M153.1316 76.5917
L152.8459 76.5203
" />
<path d="M152.8459 76.5203
L152.7030 76.4489
" />
<path d="M152.7030 76.4489
L152.6316 76.3775
" />
<path d="M152.6316 76.3775
L152.5601 76.2346
" />
<path d="M152.5601 76.2346
L152.5601 76.0917
" />
<path d="M152.5601 76.0917
L152.6316 75.9489
" />
<path d="M152.6316 75.9489
L152.7030 75.8775
" />
<path d="M152.7030 75.8775
L152.8459 75.8060
" />
<path d="M152.8459 75.8060
L153.2030 75.8060
" />
<path d="M153.2030 75.8060
L153.4173 75.8775
" />
<path d="M154.0601 77.3060
L154.0601 75.8060
" />
<path d="M154.0601 75.8060
L154.6316 75.8060
" />
<path d="M154.6316 75.8060
L154.7744 75.8775
" />
<path d="M154.7744 75.8775
L154.8459 75.9489
" />
<path d="M154.8459 75.9489
L154.9173 76.0917
" />
<path d="M154.9173 76.0917
L154.9173 76.3060
" />
<path d="M154.9173 76.3060
L154.8459 76.4489
" />
<path d="M154.8459 76.4489
L154.7744 76.5203
" />
<path d="M154.7744 76.5203
L154.6316 76.5917
" />
<path d="M154.6316 76.5917
L154.0601 76.5917
" />
<path d="M155.2030 77.4489
L156.3459 77.4489
" />
<path d="M156.7030 77.3060
L156.7030 75.8060
" />
<path d="M156.7030 75.8060
L157.2744 75.8060
" />
<path d="M157.2744 75.8060
L157.4173 75.8775
" />
<path d="M157.4173 75.8775
L157.4887 75.9489
" />
<path d="M157.4887 75.9489
L157.5601 76.0917
" />
<path d="M157.5601 76.0917
L157.5601 76.3060
" />
<path d="M157.5601 76.3060
L157.4887 76.4489
" />
<path d="M157.4887 76.4489
L157.4173 76.5203
" />
<path d="M157.4173 76.5203
L157.2744 76.5917
" />
<path d="M157.2744 76.5917
L156.7030 76.5917
" />
<path d="M159.0601 77.1632
L158.9887 77.2346
" />
<path d="M158.9887 77.2346
L158.7744 77.3060
" />
<path d="M158.7744 77.3060
L158.6316 77.3060
" />
<path d="M158.6316 77.3060
L158.4173 77.2346
" />
<path d="M158.4173 77.2346
L158.2744 77.0917
" />
<path d="M158.2744 77.0917
L158.2030 76.9489
" />
<path d="M158.2030 76.9489
L158.1316 76.6632
" />
<path d="M158.1316 76.6632
L158.1316 76.4489
" />
<path d="M158.1316 76.4489
L158.2030 76.1632
" />
<path d="M158.2030 76.1632
L158.2744 76.0203
" />
<path d="M158.2744 76.0203
L158.4173 75.8775
" />
<path d="M158.4173 75.8775
L158.6316 75.8060
" />
<path d="M158.6316 75.8060
L158.7744 75.8060
" />
<path d="M158.7744 75.8060
L158.9887 75.8775
" />
<path d="M158.9887 75.8775
L159.0601 75.9489
" />
<path d="M160.2030 76.5203
L160.4173 76.5917
" />
<path d="M160.4173 76.5917
L160.4887 76.6632
" />
<path d="M160.4887 76.6632
L160.5601 76.8060
" />
<path d="M160.5601 76.8060
L160.5601 77.0203
" />
<path d="M160.5601 77.0203
L160.4887 77.1632
" />
<path d="M160.4887 77.1632
L160.4173 77.2346
" />
<path d="M160.4173 77.2346
L160.2744 77.3060
" />
<path d="M160.2744 77.3060
L159.7030 77.3060
" />
<path d="M159.7030 77.3060
L159.7030 75.8060
" />
<path d="M159.7030 75.8060
L160.2030 75.8060
" />
<path d="M160.2030 75.8060
L160.3459 75.8775
" />
<path d="M160.3459 75.8775
L160.4173 75.9489
" />
<path d="M160.4173 75.9489
L160.4887 76.0917
" />
<path d="M160.4887 76.0917
L160.4887 76.2346
" />
<path d="M160.4887 76.2346
L160.4173 76.3775
" />
<path d="M160.4173 76.3775
L160.3459 76.4489
" />
<path d="M160.3459 76.4489
L160.2030 76.5203
" />
<path d="M160.2030 76.5203
L159.7030 76.5203
" />
</g></g>
<g style="fill:none; 
stroke:#000000; stroke-width:0.1500; stroke-opacity:1; 
stroke-linecap:round; stroke-linejoin:round;">
<g transform="rotate(-90.000000 158.3800 97.6900)">
<text x="158.3800" y="98.1900"
textLength="2.2024" font-size="1.3333" lengthAdjust="spacingAndGlyphs"
text-anchor="middle" opacity="0" stroke-opacity="0">R4</text>
</g>
<g class="stroked-text"><desc>R4</desc>
<path d="M158.8348 97.8567
L158.3586 98.1900
" />
<path d="M158.8348 98.4281
L157.8348 98.4281
" />
<path d="M157.8348 98.4281
L157.8348 98.0471
" />
<path d="M157.8348 98.0471
L157.8824 97.9519
" />
<path d="M157.8824 97.9519
L157.9301 97.9043
" />
<path d="M157.9301 97.9043
L158.0253 97.8567
" />
<path d="M158.0253 97.8567
L158.1682 97.8567
" />
<path d="M158.1682 97.8567
L158.2634 97.9043
" />
<path d="M158.2634 97.9043
L158.3110 97.9519
" />
<path d="M158.3110 97.9519
L158.3586 98.0471
" />
<path d="M158.3586 98.0471
L158.3586 98.4281
" />
<path d="M158.1682 96.9995
L158.8348 96.9995
" />
<path d="M157.7872 97.2376
L158.5015 97.4757
" />
<path d="M158.5015 97.4757
L158.5015 96.8567
" />
</g><g transform="rotate(-90.000000 163.5000 98.0000)">
<text x="163.5000" y="98.5000"
textLength="4.2500" font-size="1.3333" lengthAdjust="spacingAndGlyphs"
text-anchor="middle" opacity="0" stroke-opacity="0">330Ω</text>
</g>
<g class="stroked-text"><desc>330Ω</desc>
<path d="M162.9548 99.8571
L162.9548 99.2381
" />
<path d="M162.9548 99.2381
L163.3358 99.5714
" />
<path d="M163.3358 99.5714
L163.3358 99.4286
" />
<path d="M163.3358 99.4286
L163.3834 99.3333
" />
<path d="M163.3834 99.3333
L163.4310 99.2857
" />
<path d="M163.4310 99.2857
L163.5262 99.2381
" />
<path d="M163.5262 99.2381
L163.7643 99.2381
" />
<path d="M163.7643 99.2381
L163.8596 99.2857
" />
<path d="M163.8596 99.2857
L163.9072 99.3333
" />
<path d="M163.9072 99.3333
L163.9548 99.4286
" />
<path d="M163.9548 99.4286
L163.9548 99.7143
" />
<path d="M163.9548 99.7143
L163.9072 99.8095
" />
<path d="M163.9072 99.8095
L163.8596 99.8571
" />
<path d="M162.9548 98.9048
L162.9548 98.2857
" />
<path d="M162.9548 98.2857
L163.3358 98.6190
" />
<path d="M163.3358 98.6190
L163.3358 98.4762
" />
<path d="M163.3358 98.4762
L163.3834 98.3810
" />
<path d="M163.3834 98.3810
L163.4310 98.3333
" />
<path d="M163.4310 98.3333
L163.5262 98.2857
" />
<path d="M163.5262 98.2857
L163.7643 98.2857
" />
<path d="M163.7643 98.2857
L163.8596 98.3333
" />
<path d="M163.8596 98.3333
L163.9072 98.3810
" />
<path d="M163.9072 98.3810
L163.9548 98.4762
" />
<path d="M163.9548 98.4762
L163.9548 98.7619
" />
<path d="M163.9548 98.7619
L163.9072 98.8571
" />
<path d="M163.9072 98.8571
L163.8596 98.9048
" />
<path d="M162.9548 97.6667
L162.9548 97.5714
" />
<path d="M162.9548 97.5714
L163.0024 97.4762
" />
<path d="M163.0024 97.4762
L163.0501 97.4286
" />
<path d="M163.0501 97.4286
L163.1453 97.3810
" />
<path d="M163.1453 97.3810
L163.3358 97.3333
" />
<path d="M163.3358 97.3333
L163.5739 97.3333
" />
<path d="M163.5739 97.3333
L163.7643 97.3810
" />
<path d="M163.7643 97.3810
L163.8596 97.4286
" />
<path d="M163.8596 97.4286
L163.9072 97.4762
" />
<path d="M163.9072 97.4762
L163.9548 97.5714
" />
<path d="M163.9548 97.5714
L163.9548 97.6667
" />
<path d="M163.9548 97.6667
L163.9072 97.7619
" />
<path d="M163.9072 97.7619
L163.8596 97.8095
" />
<path d="M163.8596 97.8095
L163.7643 97.8571
" />
<path d="M163.7643 97.8571
L163.5739 97.9048
" />
<path d="M163.5739 97.9048
L163.3358 97.9048
" />
<path d="M163.3358 97.9048
L163.1453 97.8571
" />
<path d="M163.1453 97.8571
L163.0501 97.8095
" />
<path d="M163.0501 97.8095
L163.0024 97.7619
" />
<path d="M163.0024 97.7619
L162.9548 97.6667
" />
<path d="M163.9548 96.9524
L163.9548 96.7143
" />
<path d="M163.9548 96.7143
L163.7643 96.7143
" />
<path d="M163.7643 96.7143
L163.7167 96.8095
" />
<path d="M163.7167 96.8095
L163.6215 96.9048
" />
<path d="M163.6215 96.9048
L163.4786 96.9524
" />
<path d="M163.4786 96.9524
L163.2405 96.9524
" />
<path d="M163.2405 96.9524
L163.0977 96.9048
" />
<path d="M163.0977 96.9048
L163.0024 96.8095
" />
<path d="M163.0024 96.8095
L162.9548 96.6667
" />
<path d="M162.9548 96.6667
L162.9548 96.4762
" />
<path d="M162.9548 96.4762
L163.0024 96.3333
" />
<path d="M163.0024 96.3333
L163.0977 96.2381
" />
<path d="M163.0977 96.2381
L163.2405 96.1905
" />
<path d="M163.2405 96.1905
L163.4786 96.1905
" />
<path d="M163.4786 96.1905
L163.6215 96.2381
" />
<path d="M163.6215 96.2381
L163.7167 96.3333
" />
<path d="M163.7167 96.3333
L163.7643 96.4286
" />
<path d="M163.7643 96.4286
L163.9548 96.4286
" />
<path d="M163.9548 96.4286
L163.9548 96.1905
" />
</g><text x="124.0000" y="87.1200"
textLength="1.9643" font-size="1.3333" lengthAdjust="spacingAndGlyphs"
text-anchor="middle" opacity="0" stroke-opacity="0">J2</text>
<g class="stroked-text"><desc>J2</desc>
<path d="M123.6667 86.0748
L123.6667 86.7891
" />
<path d="M123.6667 86.7891
L123.6190 86.9320
" />
<path d="M123.6190 86.9320
L123.5238 87.0272
" />
<path d="M123.5238 87.0272
L123.3810 87.0748
" />
<path d="M123.3810 87.0748
L123.2857 87.0748
" />
<path d="M124.0952 86.1701
L124.1429 86.1224
" />
<path d="M124.1429 86.1224
L124.2381 86.0748
" />
<path d="M124.2381 86.0748
L124.4762 86.0748
" />
<path d="M124.4762 86.0748
L124.5714 86.1224
" />
<path d="M124.5714 86.1224
L124.6190 86.1701
" />
<path d="M124.6190 86.1701
L124.6667 86.2653
" />
<path d="M124.6667 86.2653
L124.6667 86.3605
" />
<path d="M124.6667 86.3605
L124.6190 86.5034
" />
<path d="M124.6190 86.5034
L124.0476 87.0748
" />
<path d="M124.0476 87.0748
L124.6667 87.0748
" />
</g><text x="124.5000" y="109.5000"
textLength="6.2500" font-size="1.3333" lengthAdjust="spacingAndGlyphs"
text-anchor="middle" opacity="0" stroke-opacity="0">Headers</text>
<g class="stroked-text"><desc>Headers</desc>
<path d="M121.7381 109.4548
L121.7381 108.4548
" />
<path d="M121.7381 108.9310
L122.3095 108.9310
" />
<path d="M122.3095 109.4548
L122.3095 108.4548
" />
<path d="M123.1667 109.4072
L123.0714 109.4548
" />
<path d="M123.0714 109.4548
L122.8810 109.4548
" />
<path d="M122.8810 109.4548
L122.7857 109.4072
" />
<path d="M122.7857 109.4072
L122.7381 109.3120
" />
<path d="M122.7381 109.3120
L122.7381 108.9310
" />
<path d="M122.7381 108.9310
L122.7857 108.8358
" />
<path d="M122.7857 108.8358
L122.8810 108.7882
" />
<path d="M122.8810 108.7882
L123.0714 108.7882
" />
<path d="M123.0714 108.7882
L123.1667 108.8358
" />
<path d="M123.1667 108.8358
L123.2143 108.9310
" />
<path d="M123.2143 108.9310
L123.2143 109.0262
" />
<path d="M123.2143 109.0262
L122.7381 109.1215
" />
<path d="M124.0714 109.4548
L124.0714 108.9310
" />
<path d="M124.0714 108.9310
L124.0238 108.8358
" />
<path d="M124.0238 108.8358
L123.9286 108.7882
" />
<path d="M123.9286 108.7882
L123.7381 108.7882
" />
<path d="M123.7381 108.7882
L123.6429 108.8358
" />
<path d="M124.0714 109.4072
L123.9762 109.4548
" />
<path d="M123.9762 109.4548
L123.7381 109.4548
" />
<path d="M123.7381 109.4548
L123.6429 109.4072
" />
<path d="M123.6429 109.4072
L123.5952 109.3120
" />
<path d="M123.5952 109.3120
L123.5952 109.2167
" />
<path d="M123.5952 109.2167
L123.6429 109.1215
" />
<path d="M123.6429 109.1215
L123.7381 109.0739
" />
<path d="M123.7381 109.0739
L123.9762 109.0739
" />
<path d="M123.9762 109.0739
L124.0714 109.0262
" />
<path d="M124.9762 109.4548
L124.9762 108.4548
" />
<path d="M124.9762 109.4072
L124.8810 109.4548
" />
<path d="M124.8810 109.4548
L124.6905 109.4548
" />
<path d="M124.6905 109.4548
L124.5952 109.4072
" />
<path d="M124.5952 109.4072
L124.5476 109.3596
" />
<path d="M124.5476 109.3596
L124.5000 109.2643
" />
<path d="M124.5000 109.2643
L124.5000 108.9786
" />
<path d="M124.5000 108.9786
L124.5476 108.8834
" />
<path d="M124.5476 108.8834
L124.5952 108.8358
" />
<path d="M124.5952 108.8358
L124.6905 108.7882
" />
<path d="M124.6905 108.7882
L124.8810 108.7882
" />
<path d="M124.8810 108.7882
L124.9762 108.8358
" />
<path d="M125.8333 109.4072
L125.7381 109.4548
" />
<path d="M125.7381 109.4548
L125.5476 109.4548
" />
<path d="M125.5476 109.4548
L125.4524 109.4072
" />
<path d="M125.4524 109.4072
L125.4048 109.3120
" />
<path d="M125.4048 109.3120
L125.4048 108.9310
" />
<path d="M125.4048 108.9310
L125.4524 108.8358
" />
<path d="M125.4524 108.8358
L125.5476 108.7882
" />
<path d="M125.5476 108.7882
L125.7381 108.7882
" />
<path d="M125.7381 108.7882
L125.8333 108.8358
" />
<path d="M125.8333 108.8358
L125.8810 108.9310
" />
<path d="M125.8810 108.9310
L125.8810 109.0262
" />
<path d="M125.8810 109.0262
L125.4048 109.1215
" />
<path d="M126.3095 109.4548
L126.3095 108.7882
" />
<path d="M126.3095 108.9786
L126.3571 108.8834
" />
<path d="M126.3571 108.8834
L126.4048 108.8358
" />
<path d="M126.4048 108.8358
L126.5000 108.7882
" />
<path d="M126.5000 108.7882
L126.5952 108.7882
" />
<path d="M126.8810 109.4072
L126.9762 109.4548
" />
<path d="M126.9762 109.4548
L127.1667 109.4548
" />
<path d="M127.1667 109.4548
L127.2619 109.4072
" />
<path d="M127.2619 109.4072
L127.3095 109.3120
" />
<path d="M127.3095 109.3120
L127.3095 109.2643
" />
<path d="M127.3095 109.2643
L127.2619 109.1691
" />
<path d="M127.2619 109.1691
L127.1667 109.1215
" />
<path d="M127.1667 109.1215
L127.0238 109.1215
" />
<path d="M127.0238 109.1215
L126.9286 109.0739
" />
<path d="M126.9286 109.0739
L126.8810 108.9786
" />
<path d="M126.8810 108.9786
L126.8810 108.9310
" />
<path d="M126.8810 108.9310
L126.9286 108.8358
" />
<path d="M126.9286 108.8358
L127.0238 108.7882
" />
<path d="M127.0238 108.7882
L127.1667 108.7882
" />
<path d="M127.1667 108.7882
L127.2619 108.8358
" />
</g><text x="135.1900" y="99.1300"
textLength="2.2024" font-size="1.3333" lengthAdjust="spacingAndGlyphs"
text-anchor="middle" opacity="0" stroke-opacity="0">R2</text>
<g class="stroked-text"><desc>R2</desc>
<path d="M135.0233 99.0848
L134.6900 98.6086
" />
<path d="M134.4519 99.0848
L134.4519 98.0848
" />
<path d="M134.4519 98.0848
L134.8329 98.0848
" />
<path d="M134.8329 98.0848
L134.9281 98.1324
" />
<path d="M134.9281 98.1324
L134.9757 98.1801
" />
<path d="M134.9757 98.1801
L135.0233 98.2753
" />
<path d="M135.0233 98.2753
L135.0233 98.4182
" />
<path d="M135.0233 98.4182
L134.9757 98.5134
" />
<path d="M134.9757 98.5134
L134.9281 98.5610
" />
<path d="M134.9281 98.5610
L134.8329 98.6086
" />
<path d="M134.8329 98.6086
L134.4519 98.6086
" />
<path d="M135.4043 98.1801
L135.4519 98.1324
" />
<path d="M135.4519 98.1324
L135.5471 98.0848
" />
<path d="M135.5471 98.0848
L135.7852 98.0848
" />
<path d="M135.7852 98.0848
L135.8805 98.1324
" />
<path d="M135.8805 98.1324
L135.9281 98.1801
" />
<path d="M135.9281 98.1801
L135.9757 98.2753
" />
<path d="M135.9757 98.2753
L135.9757 98.3705
" />
<path d="M135.9757 98.3705
L135.9281 98.5134
" />
<path d="M135.9281 98.5134
L135.3567 99.0848
" />
<path d="M135.3567 99.0848
L135.9757 99.0848
" />
</g><text x="135.1900" y="103.8700"
textLength="4.1071" font-size="1.3333" lengthAdjust="spacingAndGlyphs"
text-anchor="middle" opacity="0" stroke-opacity="0">10kΩ</text>
<g class="stroked-text"><desc>10kΩ</desc>
<path d="M134.0233 103.8248
L133.4519 103.8248
" />
<path d="M133.7376 103.8248
L133.7376 102.8248
" />
<path d="M133.7376 102.8248
L133.6424 102.9677
" />
<path d="M133.6424 102.9677
L133.5471 103.0629
" />
<path d="M133.5471 103.0629
L133.4519 103.1105
" />
<path d="M134.6424 102.8248
L134.7376 102.8248
" />
<path d="M134.7376 102.8248
L134.8329 102.8724
" />
<path d="M134.8329 102.8724
L134.8805 102.9201
" />
<path d="M134.8805 102.9201
L134.9281 103.0153
" />
<path d="M134.9281 103.0153
L134.9757 103.2058
" />
<path d="M134.9757 103.2058
L134.9757 103.4439
" />
<path d="M134.9757 103.4439
L134.9281 103.6343
" />
<path d="M134.9281 103.6343
L134.8805 103.7296
" />
<path d="M134.8805 103.7296
L134.8329 103.7772
" />
<path d="M134.8329 103.7772
L134.7376 103.8248
" />
<path d="M134.7376 103.8248
L134.6424 103.8248
" />
<path d="M134.6424 103.8248
L134.5471 103.7772
" />
<path d="M134.5471 103.7772
L134.4995 103.7296
" />
<path d="M134.4995 103.7296
L134.4519 103.6343
" />
<path d="M134.4519 103.6343
L134.4043 103.4439
" />
<path d="M134.4043 103.4439
L134.4043 103.2058
" />
<path d="M134.4043 103.2058
L134.4519 103.0153
" />
<path d="M134.4519 103.0153
L134.4995 102.9201
" />
<path d="M134.4995 102.9201
L134.5471 102.8724
" />
<path d="M134.5471 102.8724
L134.6424 102.8248
" />
<path d="M135.4043 103.8248
L135.4043 102.8248
" />
<path d="M135.4995 103.4439
L135.7852 103.8248
" />
<path d="M135.7852 103.1582
L135.4043 103.5391
" />
<path d="M136.1662 103.8248
L136.4043 103.8248
" />
<path d="M136.4043 103.8248
L136.4043 103.6343
" />
<path d="M136.4043 103.6343
L136.3090 103.5867
" />
<path d="M136.3090 103.5867
L136.2138 103.4915
" />
<path d="M136.2138 103.4915
L136.1662 103.3486
" />
<path d="M136.1662 103.3486
L136.1662 103.1105
" />
<path d="M136.1662 103.1105
L136.2138 102.9677
" />
<path d="M136.2138 102.9677
L136.3090 102.8724
" />
<path d="M136.3090 102.8724
L136.4519 102.8248
" />
<path d="M136.4519 102.8248
L136.6424 102.8248
" />
<path d="M136.6424 102.8248
L136.7852 102.8724
" />
<path d="M136.7852 102.8724
L136.8805 102.9677
" />
<path d="M136.8805 102.9677
L136.9281 103.1105
" />
<path d="M136.9281 103.1105
L136.9281 103.3486
" />
<path d="M136.9281 103.3486
L136.8805 103.4915
" />
<path d="M136.8805 103.4915
L136.7852 103.5867
" />
<path d="M136.7852 103.5867
L136.6900 103.6343
" />
<path d="M136.6900 103.6343
L136.6900 103.8248
" />
<path d="M136.6900 103.8248
L136.9281 103.8248
" />
</g><g transform="rotate(-90.000000 143.0000 98.0000)">
<text x="143.0000" y="98.5000"
textLength="2.2024" font-size="1.3333" lengthAdjust="spacingAndGlyphs"
text-anchor="middle" opacity="0" stroke-opacity="0">R5</text>
</g>
<g class="stroked-text"><desc>R5</desc>
<path d="M143.4548 98.1667
L142.9786 98.5000
" />
<path d="M143.4548 98.7381
L142.4548 98.7381
" />
<path d="M142.4548 98.7381
L142.4548 98.3571
" />
<path d="M142.4548 98.3571
L142.5024 98.2619
" />
<path d="M142.5024 98.2619
L142.5501 98.2143
" />
<path d="M142.5501 98.2143
L142.6453 98.1667
" />
<path d="M142.6453 98.1667
L142.7882 98.1667
" />
<path d="M142.7882 98.1667
L142.8834 98.2143
" />
<path d="M142.8834 98.2143
L142.9310 98.2619
" />
<path d="M142.9310 98.2619
L142.9786 98.3571
" />
<path d="M142.9786 98.3571
L142.9786 98.7381
" />
<path d="M142.4548 97.2619
L142.4548 97.7381
" />
<path d="M142.4548 97.7381
L142.9310 97.7857
" />
<path d="M142.9310 97.7857
L142.8834 97.7381
" />
<path d="M142.8834 97.7381
L142.8358 97.6429
" />
<path d="M142.8358 97.6429
L142.8358 97.4048
" />
<path d="M142.8358 97.4048
L142.8834 97.3095
" />
<path d="M142.8834 97.3095
L142.9310 97.2619
" />
<path d="M142.9310 97.2619
L143.0262 97.2143
" />
<path d="M143.0262 97.2143
L143.2643 97.2143
" />
<path d="M143.2643 97.2143
L143.3596 97.2619
" />
<path d="M143.3596 97.2619
L143.4072 97.3095
" />
<path d="M143.4072 97.3095
L143.4548 97.4048
" />
<path d="M143.4548 97.4048
L143.4548 97.6429
" />
<path d="M143.4548 97.6429
L143.4072 97.7381
" />
<path d="M143.4072 97.7381
L143.3596 97.7857
" />
</g><g transform="rotate(-90.000000 148.0000 98.0000)">
<text x="148.0000" y="98.5000"
textLength="4.2500" font-size="1.3333" lengthAdjust="spacingAndGlyphs"
text-anchor="middle" opacity="0" stroke-opacity="0">220Ω</text>
</g>
<g class="stroked-text"><desc>220Ω</desc>
<path d="M147.5501 99.8095
L147.5024 99.7619
" />
<path d="M147.5024 99.7619
L147.4548 99.6667
" />
<path d="M147.4548 99.6667
L147.4548 99.4286
" />
<path d="M147.4548 99.4286
L147.5024 99.3333
" />
<path d="M147.5024 99.3333
L147.5501 99.2857
" />
<path d="M147.5501 99.2857
L147.6453 99.2381
" />
<path d="M147.6453 99.2381
L147.7405 99.2381
" />
<path d="M147.7405 99.2381
L147.8834 99.2857
" />
<path d="M147.8834 99.2857
L148.4548 99.8571
" />
<path d="M148.4548 99.8571
L148.4548 99.2381
" />
<path d="M147.5501 98.8571
L147.5024 98.8095
" />
<path d="M147.5024 98.8095
L147.4548 98.7143
" />
<path d="M147.4548 98.7143
L147.4548 98.4762
" />
<path d="M147.4548 98.4762
L147.5024 98.3810
" />
<path d="M147.5024 98.3810
L147.5501 98.3333
" />
<path d="M147.5501 98.3333
L147.6453 98.2857
" />
<path d="M147.6453 98.2857
L147.7405 98.2857
" />
<path d="M147.7405 98.2857
L147.8834 98.3333
" />
<path d="M147.8834 98.3333
L148.4548 98.9048
" />
<path d="M148.4548 98.9048
L148.4548 98.2857
" />
<path d="M147.4548 97.6667
L147.4548 97.5714
" />
<path d="M147.4548 97.5714
L147.5024 97.4762
" />
<path d="M147.5024 97.4762
L147.5501 97.4286
" />
<path d="M147.5501 97.4286
L147.6453 97.3810
" />
<path d="M147.6453 97.3810
L147.8358 97.3333
" />
<path d="M147.8358 97.3333
L148.0739 97.3333
" />
<path d="M148.0739 97.3333
L148.2643 97.3810
" />
<path d="M148.2643 97.3810
L148.3596 97.4286
" />
<path d="M148.3596 97.4286
L148.4072 97.4762
" />
<path d="M148.4072 97.4762
L148.4548 97.5714
" />
<path d="M148.4548 97.5714
L148.4548 97.6667
" />
<path d="M148.4548 97.6667
L148.4072 97.7619
" />
<path d="M148.4072 97.7619
L148.3596 97.8095
" />
<path d="M148.3596 97.8095
L148.2643 97.8571
" />
<path d="M148.2643 97.8571
L148.0739 97.9048
" />
<path d="M148.0739 97.9048
L147.8358 97.9048
" />
<path d="M147.8358 97.9048
L147.6453 97.8571
" />
<path d="M147.6453 97.8571
L147.5501 97.8095
" />
<path d="M147.5501 97.8095
L147.5024 97.7619
" />
<path d="M147.5024 97.7619
L147.4548 97.6667
" />
<path d="M148.4548 96.9524
L148.4548 96.7143
" />
<path d="M148.4548 96.7143
L148.2643 96.7143
" />
<path d="M148.2643 96.7143
L148.2167 96.8095
" />
<path d="M148.2167 96.8095
L148.1215 96.9048
" />
<path d="M148.1215 96.9048
L147.9786 96.9524
" />
<path d="M147.9786 96.9524
L147.7405 96.9524
" />
<path d="M147.7405 96.9524
L147.5977 96.9048
" />
<path d="M147.5977 96.9048
L147.5024 96.8095
" />
<path d="M147.5024 96.8095
L147.4548 96.6667
" />
<path d="M147.4548 96.6667
L147.4548 96.4762
" />
<path d="M147.4548 96.4762
L147.5024 96.3333
" />
<path d="M147.5024 96.3333
L147.5977 96.2381
" />
<path d="M147.5977 96.2381
L147.7405 96.1905
" />
<path d="M147.7405 96.1905
L147.9786 96.1905
" />
<path d="M147.9786 96.1905
L148.1215 96.2381
" />
<path d="M148.1215 96.2381
L148.2167 96.3333
" />
<path d="M148.2167 96.3333
L148.2643 96.4286
" />
<path d="M148.2643 96.4286
L148.4548 96.4286
" />
<path d="M148.4548 96.4286
L148.4548 96.1905
" />
</g><text x="147.8895" y="110.6962"
textLength="2.2024" font-size="1.3333" lengthAdjust="spacingAndGlyphs"
text-anchor="middle" opacity="0" stroke-opacity="0">R1</text>
<g class="stroked-text"><desc>R1</desc>
<path d="M147.7229 110.6510
L147.3895 110.1748
" />
<path d="M147.1514 110.6510
L147.1514 109.6510
" />
<path d="M147.1514 109.6510
L147.5324 109.6510
" />
<path d="M147.5324 109.6510
L147.6276 109.6986
" />
<path d="M147.6276 109.6986
L147.6752 109.7462
" />
<path d="M147.6752 109.7462
L147.7229 109.8415
" />
<path d="M147.7229 109.8415
L147.7229 109.9843
" />
<path d="M147.7229 109.9843
L147.6752 110.0796
" />
<path d="M147.6752 110.0796
L147.6276 110.1272
" />
<path d="M147.6276 110.1272
L147.5324 110.1748
" />
<path d="M147.5324 110.1748
L147.1514 110.1748
" />
<path d="M148.6752 110.6510
L148.1038 110.6510
" />
<path d="M148.3895 110.6510
L148.3895 109.6510
" />
<path d="M148.3895 109.6510
L148.2943 109.7939
" />
<path d="M148.2943 109.7939
L148.1991 109.8891
" />
<path d="M148.1991 109.8891
L148.1038 109.9367
" />
</g><text x="148.0000" y="119.0000"
textLength="3.0595" font-size="1.3333" lengthAdjust="spacingAndGlyphs"
text-anchor="middle" opacity="0" stroke-opacity="0">LDR</text>
<g class="stroked-text"><desc>LDR</desc>
<path d="M147.3095 118.9548
L146.8333 118.9548
" />
<path d="M146.8333 118.9548
L146.8333 117.9548
" />
<path d="M147.6429 118.9548
L147.6429 117.9548
" />
<path d="M147.6429 117.9548
L147.8810 117.9548
" />
<path d="M147.8810 117.9548
L148.0238 118.0024
" />
<path d="M148.0238 118.0024
L148.1190 118.0977
" />
<path d="M148.1190 118.0977
L148.1667 118.1929
" />
<path d="M148.1667 118.1929
L148.2143 118.3834
" />
<path d="M148.2143 118.3834
L148.2143 118.5262
" />
<path d="M148.2143 118.5262
L148.1667 118.7167
" />
<path d="M148.1667 118.7167
L148.1190 118.8120
" />
<path d="M148.1190 118.8120
L148.0238 118.9072
" />
<path d="M148.0238 118.9072
L147.8810 118.9548
" />
<path d="M147.8810 118.9548
L147.6429 118.9548
" />
<path d="M149.2143 118.9548
L148.8810 118.4786
" />
<path d="M148.6429 118.9548
L148.6429 117.9548
" />
<path d="M148.6429 117.9548
L149.0238 117.9548
" />
<path d="M149.0238 117.9548
L149.1190 118.0024
" />
<path d="M149.1190 118.0024
L149.1667 118.0501
" />
<path d="M149.1667 118.0501
L149.2143 118.1453
" />
<path d="M149.2143 118.1453
L149.2143 118.2882
" />
<path d="M149.2143 118.2882
L149.1667 118.3834
" />
<path d="M149.1667 118.3834
L149.1190 118.4310
" />
<path d="M149.1190 118.4310
L149.0238 118.4786
" />
<path d="M149.0238 118.4786
L148.6429 118.4786
" />
</g><text x="173.0000" y="90.5000"
textLength="1.9643" font-size="1.3333" lengthAdjust="spacingAndGlyphs"
text-anchor="middle" opacity="0" stroke-opacity="0">J3</text>
<g class="stroked-text"><desc>J3</desc>
<path d="M172.6667 89.4548
L172.6667 90.1691
" />
<path d="M172.6667 90.1691
L172.6190 90.3120
" />
<path d="M172.6190 90.3120
L172.5238 90.4072
" />
<path d="M172.5238 90.4072
L172.3810 90.4548
" />
<path d="M172.3810 90.4548
L172.2857 90.4548
" />
<path d="M173.0476 89.4548
L173.6667 89.4548
" />
<path d="M173.6667 89.4548
L173.3333 89.8358
" />
<path d="M173.3333 89.8358
L173.4762 89.8358
" />
<path d="M173.4762 89.8358
L173.5714 89.8834
" />
<path d="M173.5714 89.8834
L173.6190 89.9310
" />
<path d="M173.6190 89.9310
L173.6667 90.0262
" />
<path d="M173.6667 90.0262
L173.6667 90.2643
" />
<path d="M173.6667 90.2643
L173.6190 90.3596
" />
<path d="M173.6190 90.3596
L173.5714 90.4072
" />
<path d="M173.5714 90.4072
L173.4762 90.4548
" />
<path d="M173.4762 90.4548
L173.1905 90.4548
" />
<path d="M173.1905 90.4548
L173.0952 90.4072
" />
<path d="M173.0952 90.4072
L173.0476 90.3596
" />
</g><text x="172.4351" y="105.5213"
textLength="9.9643" font-size="1.3333" lengthAdjust="spacingAndGlyphs"
text-anchor="middle" opacity="0" stroke-opacity="0">EXT. BUZZER</text>
<g class="stroked-text"><desc>EXT. BUZZER</desc>
<path d="M167.8160 104.9523
L168.1494 104.9523
" />
<path d="M168.2922 105.4761
L167.8160 105.4761
" />
<path d="M167.8160 105.4761
L167.8160 104.4761
" />
<path d="M167.8160 104.4761
L168.2922 104.4761
" />
<path d="M168.6256 104.4761
L169.2922 105.4761
" />
<path d="M169.2922 104.4761
L168.6256 105.4761
" />
<path d="M169.5303 104.4761
L170.1017 104.4761
" />
<path d="M169.8160 105.4761
L169.8160 104.4761
" />
<path d="M170.4351 105.3809
L170.4827 105.4285
" />
<path d="M170.4827 105.4285
L170.4351 105.4761
" />
<path d="M170.4351 105.4761
L170.3875 105.4285
" />
<path d="M170.3875 105.4285
L170.4351 105.3809
" />
<path d="M170.4351 105.3809
L170.4351 105.4761
" />
<path d="M172.0065 104.9523
L172.1494 104.9999
" />
<path d="M172.1494 104.9999
L172.1970 105.0475
" />
<path d="M172.1970 105.0475
L172.2446 105.1428
" />
<path d="M172.2446 105.1428
L172.2446 105.2856
" />
<path d="M172.2446 105.2856
L172.1970 105.3809
" />
<path d="M172.1970 105.3809
L172.1494 105.4285
" />
<path d="M172.1494 105.4285
L172.0541 105.4761
" />
<path d="M172.0541 105.4761
L171.6732 105.4761
" />
<path d="M171.6732 105.4761
L171.6732 104.4761
" />
<path d="M171.6732 104.4761
L172.0065 104.4761
" />
<path d="M172.0065 104.4761
L172.1017 104.5237
" />
<path d="M172.1017 104.5237
L172.1494 104.5713
" />
<path d="M172.1494 104.5713
L172.1970 104.6666
" />
<path d="M172.1970 104.6666
L172.1970 104.7618
" />
<path d="M172.1970 104.7618
L172.1494 104.8570
" />
<path d="M172.1494 104.8570
L172.1017 104.9047
" />
<path d="M172.1017 104.9047
L172.0065 104.9523
" />
<path d="M172.0065 104.9523
L171.6732 104.9523
" />
<path d="M172.6732 104.4761
L172.6732 105.2856
" />
<path d="M172.6732 105.2856
L172.7208 105.3809
" />
<path d="M172.7208 105.3809
L172.7684 105.4285
" />
<path d="M172.7684 105.4285
L172.8636 105.4761
" />
<path d="M172.8636 105.4761
L173.0541 105.4761
" />
<path d="M173.0541 105.4761
L173.1494 105.4285
" />
<path d="M173.1494 105.4285
L173.1970 105.3809
" />
<path d="M173.1970 105.3809
L173.2446 105.2856
" />
<path d="M173.2446 105.2856
L173.2446 104.4761
" />
<path d="M173.6256 104.4761
L174.2922 104.4761
" />
<path d="M174.2922 104.4761
L173.6256 105.4761
" />
<path d="M173.6256 105.4761
L174.2922 105.4761
" />
<path d="M174.5779 104.4761
L175.2446 104.4761
" />
<path d="M175.2446 104.4761
L174.5779 105.4761
" />
<path d="M174.5779 105.4761
L175.2446 105.4761
" />
<path d="M175.6256 104.9523
L175.9589 104.9523
" />
<path d="M176.1017 105.4761
L175.6256 105.4761
" />
<path d="M175.6256 105.4761
L175.6256 104.4761
" />
<path d="M175.6256 104.4761
L176.1017 104.4761
" />
<path d="M177.1017 105.4761
L176.7684 104.9999
" />
<path d="M176.5303 105.4761
L176.5303 104.4761
" />
<path d="M176.5303 104.4761
L176.9113 104.4761
" />
<path d="M176.9113 104.4761
L177.0065 104.5237
" />
<path d="M177.0065 104.5237
L177.0541 104.5713
" />
<path d="M177.0541 104.5713
L177.1017 104.6666
" />
<path d="M177.1017 104.6666
L177.1017 104.8094
" />
<path d="M177.1017 104.8094
L177.0541 104.9047
" />
<path d="M177.0541 104.9047
L177.0065 104.9523
" />
<path d="M177.0065 104.9523
L176.9113 104.9999
" />
<path d="M176.9113 104.9999
L176.5303 104.9999
" />
</g><text x="145.0000" y="81.0000"
textLength="1.9643" font-size="1.3333" lengthAdjust="spacingAndGlyphs"
text-anchor="middle" opacity="0" stroke-opacity="0">J1</text>
<g class="stroked-text"><desc>J1</desc>
<path d="M144.6667 79.9548
L144.6667 80.6691
" />
<path d="M144.6667 80.6691
L144.6190 80.8120
" />
<path d="M144.6190 80.8120
L144.5238 80.9072
" />
<path d="M144.5238 80.9072
L144.3810 80.9548
" />
<path d="M144.3810 80.9548
L144.2857 80.9548
" />
<path d="M145.6667 80.9548
L145.0952 80.9548
" />
<path d="M145.3810 80.9548
L145.3810 79.9548
" />
<path d="M145.3810 79.9548
L145.2857 80.0977
" />
<path d="M145.2857 80.0977
L145.1905 80.1929
" />
<path d="M145.1905 80.1929
L145.0952 80.2405
" />
</g><g transform="rotate(-90.000000 138.5000 85.6000)">
<text x="138.5000" y="86.1000"
textLength="9.5833" font-size="1.3333" lengthAdjust="spacingAndGlyphs"
text-anchor="middle" opacity="0" stroke-opacity="0">EXT. RG LED</text>
</g>
<g class="stroked-text"><desc>EXT. RG LED</desc>
<path d="M138.4310 90.0286
L138.4310 89.6952
" />
<path d="M138.9548 89.5524
L138.9548 90.0286
" />
<path d="M138.9548 90.0286
L137.9548 90.0286
" />
<path d="M137.9548 90.0286
L137.9548 89.5524
" />
<path d="M137.9548 89.2190
L138.9548 88.5524
" />
<path d="M137.9548 88.5524
L138.9548 89.2190
" />
<path d="M137.9548 88.3143
L137.9548 87.7429
" />
<path d="M138.9548 88.0286
L137.9548 88.0286
" />
<path d="M138.8596 87.4095
L138.9072 87.3619
" />
<path d="M138.9072 87.3619
L138.9548 87.4095
" />
<path d="M138.9548 87.4095
L138.9072 87.4571
" />
<path d="M138.9072 87.4571
L138.8596 87.4095
" />
<path d="M138.8596 87.4095
L138.9548 87.4095
" />
<path d="M138.9548 85.6000
L138.4786 85.9333
" />
<path d="M138.9548 86.1714
L137.9548 86.1714
" />
<path d="M137.9548 86.1714
L137.9548 85.7905
" />
<path d="M137.9548 85.7905
L138.0024 85.6952
" />
<path d="M138.0024 85.6952
L138.0501 85.6476
" />
<path d="M138.0501 85.6476
L138.1453 85.6000
" />
<path d="M138.1453 85.6000
L138.2882 85.6000
" />
<path d="M138.2882 85.6000
L138.3834 85.6476
" />
<path d="M138.3834 85.6476
L138.4310 85.6952
" />
<path d="M138.4310 85.6952
L138.4786 85.7905
" />
<path d="M138.4786 85.7905
L138.4786 86.1714
" />
<path d="M138.0024 84.6476
L137.9548 84.7429
" />
<path d="M137.9548 84.7429
L137.9548 84.8857
" />
<path d="M137.9548 84.8857
L138.0024 85.0286
" />
<path d="M138.0024 85.0286
L138.0977 85.1238
" />
<path d="M138.0977 85.1238
L138.1929 85.1714
" />
<path d="M138.1929 85.1714
L138.3834 85.2190
" />
<path d="M138.3834 85.2190
L138.5262 85.2190
" />
<path d="M138.5262 85.2190
L138.7167 85.1714
" />
<path d="M138.7167 85.1714
L138.8120 85.1238
" />
<path d="M138.8120 85.1238
L138.9072 85.0286
" />
<path d="M138.9072 85.0286
L138.9548 84.8857
" />
<path d="M138.9548 84.8857
L138.9548 84.7905
" />
<path d="M138.9548 84.7905
L138.9072 84.6476
" />
<path d="M138.9072 84.6476
L138.8596 84.6000
" />
<path d="M138.8596 84.6000
L138.5262 84.6000
" />
<path d="M138.5262 84.6000
L138.5262 84.7905
" />
<path d="M138.9548 82.9333
L138.9548 83.4095
" />
<path d="M138.9548 83.4095
L137.9548 83.4095
" />
<path d="M138.4310 82.6000
L138.4310 82.2667
" />
<path d="M138.9548 82.1238
L138.9548 82.6000
" />
<path d="M138.9548 82.6000
L137.9548 82.6000
" />
<path d="M137.9548 82.6000
L137.9548 82.1238
" />
<path d="M138.9548 81.6952
L137.9548 81.6952
" />
<path d="M137.9548 81.6952
L137.9548 81.4571
" />
<path d="M137.9548 81.4571
L138.0024 81.3143
" />
<path d="M138.0024 81.3143
L138.0977 81.2190
" />
<path d="M138.0977 81.2190
L138.1929 81.1714
" />
<path d="M138.1929 81.1714
L138.3834 81.1238
" />
<path d="M138.3834 81.1238
L138.5262 81.1238
" />
<path d="M138.5262 81.1238
L138.7167 81.1714
" />
<path d="M138.7167 81.1714
L138.8120 81.2190
" />
<path d="M138.8120 81.2190
L138.9072 81.3143
" />
<path d="M138.9072 81.3143
L138.9548 81.4571
" />
<path d="M138.9548 81.4571
L138.9548 81.6952
" />
</g><text x="163.0000" y="81.0000"
textLength="3.2976" font-size="1.3333" lengthAdjust="spacingAndGlyphs"
text-anchor="middle" opacity="0" stroke-opacity="0">SW1</text>
<g class="stroked-text"><desc>SW1</desc>
<path d="M161.6667 80.9072
L161.8095 80.9548
" />
<path d="M161.8095 80.9548
L162.0476 80.9548
" />
<path d="M162.0476 80.9548
L162.1429 80.9072
" />
<path d="M162.1429 80.9072
L162.1905 80.8596
" />
<path d="M162.1905 80.8596
L162.2381 80.7643
" />
<path d="M162.2381 80.7643
L162.2381 80.6691
" />
<path d="M162.2381 80.6691
L162.1905 80.5739
" />
<path d="M162.1905 80.5739
L162.1429 80.5262
" />
<path d="M162.1429 80.5262
L162.0476 80.4786
" />
<path d="M162.0476 80.4786
L161.8571 80.4310
" />
<path d="M161.8571 80.4310
L161.7619 80.3834
" />
<path d="M161.7619 80.3834
L161.7143 80.3358
" />
<path d="M161.7143 80.3358
L161.6667 80.2405
" />
<path d="M161.6667 80.2405
L161.6667 80.1453
" />
<path d="M161.6667 80.1453
L161.7143 80.0501
" />
<path d="M161.7143 80.0501
L161.7619 80.0024
" />
<path d="M161.7619 80.0024
L161.8571 79.9548
" />
<path d="M161.8571 79.9548
L162.0952 79.9548
" />
<path d="M162.0952 79.9548
L162.2381 80.0024
" />
<path d="M162.5714 79.9548
L162.8095 80.9548
" />
<path d="M162.8095 80.9548
L163.0000 80.2405
" />
<path d="M163.0000 80.2405
L163.1905 80.9548
" />
<path d="M163.1905 80.9548
L163.4286 79.9548
" />
<path d="M164.3333 80.9548
L163.7619 80.9548
" />
<path d="M164.0476 80.9548
L164.0476 79.9548
" />
<path d="M164.0476 79.9548
L163.9524 80.0977
" />
<path d="M163.9524 80.0977
L163.8571 80.1929
" />
<path d="M163.8571 80.1929
L163.7619 80.2405
" />
</g><g transform="rotate(-90.000000 156.5000 85.5000)">
<text x="156.5000" y="86.0000"
textLength="11.2024" font-size="1.3333" lengthAdjust="spacingAndGlyphs"
text-anchor="middle" opacity="0" stroke-opacity="0">RESET BUTTON</text>
</g>
<g class="stroked-text"><desc>RESET BUTTON</desc>
<path d="M156.9548 90.1667
L156.4786 90.5000
" />
<path d="M156.9548 90.7381
L155.9548 90.7381
" />
<path d="M155.9548 90.7381
L155.9548 90.3571
" />
<path d="M155.9548 90.3571
L156.0024 90.2619
" />
<path d="M156.0024 90.2619
L156.0501 90.2143
" />
<path d="M156.0501 90.2143
L156.1453 90.1667
" />
<path d="M156.1453 90.1667
L156.2882 90.1667
" />
<path d="M156.2882 90.1667
L156.3834 90.2143
" />
<path d="M156.3834 90.2143
L156.4310 90.2619
" />
<path d="M156.4310 90.2619
L156.4786 90.3571
" />
<path d="M156.4786 90.3571
L156.4786 90.7381
" />
<path d="M156.4310 89.7381
L156.4310 89.4048
" />
<path d="M156.9548 89.2619
L156.9548 89.7381
" />
<path d="M156.9548 89.7381
L155.9548 89.7381
" />
<path d="M155.9548 89.7381
L155.9548 89.2619
" />
<path d="M156.9072 88.8810
L156.9548 88.7381
" />
<path d="M156.9548 88.7381
L156.9548 88.5000
" />
<path d="M156.9548 88.5000
L156.9072 88.4048
" />
<path d="M156.9072 88.4048
L156.8596 88.3571
" />
<path d="M156.8596 88.3571
L156.7643 88.3095
" />
<path d="M156.7643 88.3095
L156.6691 88.3095
" />
<path d="M156.6691 88.3095
L156.5739 88.3571
" />
<path d="M156.5739 88.3571
L156.5262 88.4048
" />
<path d="M156.5262 88.4048
L156.4786 88.5000
" />
<path d="M156.4786 88.5000
L156.4310 88.6905
" />
<path d="M156.4310 88.6905
L156.3834 88.7857
" />
<path d="M156.3834 88.7857
L156.3358 88.8333
" />
<path d="M156.3358 88.8333
L156.2405 88.8810
" />
<path d="M156.2405 88.8810
L156.1453 88.8810
" />
<path d="M156.1453 88.8810
L156.0501 88.8333
" />
<path d="M156.0501 88.8333
L156.0024 88.7857
" />
<path d="M156.0024 88.7857
L155.9548 88.6905
" />
<path d="M155.9548 88.6905
L155.9548 88.4524
" />
<path d="M155.9548 88.4524
L156.0024 88.3095
" />
<path d="M156.4310 87.8810
L156.4310 87.5476
" />
<path d="M156.9548 87.4048
L156.9548 87.8810
" />
<path d="M156.9548 87.8810
L155.9548 87.8810
" />
<path d="M155.9548 87.8810
L155.9548 87.4048
" />
<path d="M155.9548 87.1190
L155.9548 86.5476
" />
<path d="M156.9548 86.8333
L155.9548 86.8333
" />
<path d="M156.4310 85.1190
L156.4786 84.9762
" />
<path d="M156.4786 84.9762
L156.5262 84.9286
" />
<path d="M156.5262 84.9286
L156.6215 84.8810
" />
<path d="M156.6215 84.8810
L156.7643 84.8810
" />
<path d="M156.7643 84.8810
L156.8596 84.9286
" />
<path d="M156.8596 84.9286
L156.9072 84.9762
" />
<path d="M156.9072 84.9762
L156.9548 85.0714
" />
<path d="M156.9548 85.0714
L156.9548 85.4524
" />
<path d="M156.9548 85.4524
L155.9548 85.4524
" />
<path d="M155.9548 85.4524
L155.9548 85.1190
" />
<path d="M155.9548 85.1190
L156.0024 85.0238
" />
<path d="M156.0024 85.0238
L156.0501 84.9762
" />
<path d="M156.0501 84.9762
L156.1453 84.9286
" />
<path d="M156.1453 84.9286
L156.2405 84.9286
" />
<path d="M156.2405 84.9286
L156.3358 84.9762
" />
<path d="M156.3358 84.9762
L156.3834 85.0238
" />
<path d="M156.3834 85.0238
L156.4310 85.1190
" />
<path d="M156.4310 85.1190
L156.4310 85.4524
" />
<path d="M155.9548 84.4524
L156.7643 84.4524
" />
<path d="M156.7643 84.4524
L156.8596 84.4048
" />
<path d="M156.8596 84.4048
L156.9072 84.3571
" />
<path d="M156.9072 84.3571
L156.9548 84.2619
" />
<path d="M156.9548 84.2619
L156.9548 84.0714
" />
<path d="M156.9548 84.0714
L156.9072 83.9762
" />
<path d="M156.9072 83.9762
L156.8596 83.9286
" />
<path d="M156.8596 83.9286
L156.7643 83.8810
" />
<path d="M156.7643 83.8810
L155.9548 83.8810
" />
<path d="M155.9548 83.5476
L155.9548 82.9762
" />
<path d="M156.9548 83.2619
L155.9548 83.2619
" />
<path d="M155.9548 82.7857
L155.9548 82.2143
" />
<path d="M156.9548 82.5000
L155.9548 82.5000
" />
<path d="M155.9548 81.6905
L155.9548 81.5000
" />
<path d="M155.9548 81.5000
L156.0024 81.4048
" />
<path d="M156.0024 81.4048
L156.0977 81.3095
" />
<path d="M156.0977 81.3095
L156.2882 81.2619
" />
<path d="M156.2882 81.2619
L156.6215 81.2619
" />
<path d="M156.6215 81.2619
L156.8120 81.3095
" />
<path d="M156.8120 81.3095
L156.9072 81.4048
" />
<path d="M156.9072 81.4048
L156.9548 81.5000
" />
<path d="M156.9548 81.5000
L156.9548 81.6905
" />
<path d="M156.9548 81.6905
L156.9072 81.7857
" />
<path d="M156.9072 81.7857
L156.8120 81.8810
" />
<path d="M156.8120 81.8810
L156.6215 81.9286
" />
<path d="M156.6215 81.9286
L156.2882 81.9286
" />
<path d="M156.2882 81.9286
L156.0977 81.8810
" />
<path d="M156.0977 81.8810
L156.0024 81.7857
" />
<path d="M156.0024 81.7857
L155.9548 81.6905
" />
<path d="M156.9548 80.8333
L155.9548 80.8333
" />
<path d="M155.9548 80.8333
L156.9548 80.2619
" />
<path d="M156.9548 80.2619
L155.9548 80.2619
" />
</g><text x="135.1900" y="92.6300"
textLength="2.2024" font-size="1.3333" lengthAdjust="spacingAndGlyphs"
text-anchor="middle" opacity="0" stroke-opacity="0">R6</text>
<g class="stroked-text"><desc>R6</desc>
<path d="M135.0233 92.5848
L134.6900 92.1086
" />
<path d="M134.4519 92.5848
L134.4519 91.5848
" />
<path d="M134.4519 91.5848
L134.8329 91.5848
" />
<path d="M134.8329 91.5848
L134.9281 91.6324
" />
<path d="M134.9281 91.6324
L134.9757 91.6801
" />
<path d="M134.9757 91.6801
L135.0233 91.7753
" />
<path d="M135.0233 91.7753
L135.0233 91.9182
" />
<path d="M135.0233 91.9182
L134.9757 92.0134
" />
<path d="M134.9757 92.0134
L134.9281 92.0610
" />
<path d="M134.9281 92.0610
L134.8329 92.1086
" />
<path d="M134.8329 92.1086
L134.4519 92.1086
" />
<path d="M135.8805 91.5848
L135.6900 91.5848
" />
<path d="M135.6900 91.5848
L135.5948 91.6324
" />
<path d="M135.5948 91.6324
L135.5471 91.6801
" />
<path d="M135.5471 91.6801
L135.4519 91.8229
" />
<path d="M135.4519 91.8229
L135.4043 92.0134
" />
<path d="M135.4043 92.0134
L135.4043 92.3943
" />
<path d="M135.4043 92.3943
L135.4519 92.4896
" />
<path d="M135.4519 92.4896
L135.4995 92.5372
" />
<path d="M135.4995 92.5372
L135.5948 92.5848
" />
<path d="M135.5948 92.5848
L135.7852 92.5848
" />
<path d="M135.7852 92.5848
L135.8805 92.5372
" />
<path d="M135.8805 92.5372
L135.9281 92.4896
" />
<path d="M135.9281 92.4896
L135.9757 92.3943
" />
<path d="M135.9757 92.3943
L135.9757 92.1562
" />
<path d="M135.9757 92.1562
L135.9281 92.0610
" />
<path d="M135.9281 92.0610
L135.8805 92.0134
" />
<path d="M135.8805 92.0134
L135.7852 91.9658
" />
<path d="M135.7852 91.9658
L135.5948 91.9658
" />
<path d="M135.5948 91.9658
L135.4995 92.0134
" />
<path d="M135.4995 92.0134
L135.4519 92.0610
" />
<path d="M135.4519 92.0610
L135.4043 92.1562
" />
</g><text x="135.1900" y="97.3700"
textLength="4.2500" font-size="1.3333" lengthAdjust="spacingAndGlyphs"
text-anchor="middle" opacity="0" stroke-opacity="0">220Ω</text>
<g class="stroked-text"><desc>220Ω</desc>
<path d="M133.3805 96.4201
L133.4281 96.3724
" />
<path d="M133.4281 96.3724
L133.5233 96.3248
" />
<path d="M133.5233 96.3248
L133.7614 96.3248
" />
<path d="M133.7614 96.3248
L133.8567 96.3724
" />
<path d="M133.8567 96.3724
L133.9043 96.4201
" />
<path d="M133.9043 96.4201
L133.9519 96.5153
" />
<path d="M133.9519 96.5153
L133.9519 96.6105
" />
<path d="M133.9519 96.6105
L133.9043 96.7534
" />
<path d="M133.9043 96.7534
L133.3329 97.3248
" />
<path d="M133.3329 97.3248
L133.9519 97.3248
" />
<path d="M134.3329 96.4201
L134.3805 96.3724
" />
<path d="M134.3805 96.3724
L134.4757 96.3248
" />
<path d="M134.4757 96.3248
L134.7138 96.3248
" />
<path d="M134.7138 96.3248
L134.8090 96.3724
" />
<path d="M134.8090 96.3724
L134.8567 96.4201
" />
<path d="M134.8567 96.4201
L134.9043 96.5153
" />
<path d="M134.9043 96.5153
L134.9043 96.6105
" />
<path d="M134.9043 96.6105
L134.8567 96.7534
" />
<path d="M134.8567 96.7534
L134.2852 97.3248
" />
<path d="M134.2852 97.3248
L134.9043 97.3248
" />
<path d="M135.5233 96.3248
L135.6186 96.3248
" />
<path d="M135.6186 96.3248
L135.7138 96.3724
" />
<path d="M135.7138 96.3724
L135.7614 96.4201
" />
<path d="M135.7614 96.4201
L135.8090 96.5153
" />
<path d="M135.8090 96.5153
L135.8567 96.7058
" />
<path d="M135.8567 96.7058
L135.8567 96.9439
" />
<path d="M135.8567 96.9439
L135.8090 97.1343
" />
<path d="M135.8090 97.1343
L135.7614 97.2296
" />
<path d="M135.7614 97.2296
L135.7138 97.2772
" />
<path d="M135.7138 97.2772
L135.6186 97.3248
" />
<path d="M135.6186 97.3248
L135.5233 97.3248
" />
<path d="M135.5233 97.3248
L135.4281 97.2772
" />
<path d="M135.4281 97.2772
L135.3805 97.2296
" />
<path d="M135.3805 97.2296
L135.3329 97.1343
" />
<path d="M135.3329 97.1343
L135.2852 96.9439
" />
<path d="M135.2852 96.9439
L135.2852 96.7058
" />
<path d="M135.2852 96.7058
L135.3329 96.5153
" />
<path d="M135.3329 96.5153
L135.3805 96.4201
" />
<path d="M135.3805 96.4201
L135.4281 96.3724
" />
<path d="M135.4281 96.3724
L135.5233 96.3248
" />
<path d="M136.2376 97.3248
L136.4757 97.3248
" />
<path d="M136.4757 97.3248
L136.4757 97.1343
" />
<path d="M136.4757 97.1343
L136.3805 97.0867
" />
<path d="M136.3805 97.0867
L136.2852 96.9915
" />
<path d="M136.2852 96.9915
L136.2376 96.8486
" />
<path d="M136.2376 96.8486
L136.2376 96.6105
" />
<path d="M136.2376 96.6105
L136.2852 96.4677
" />
<path d="M136.2852 96.4677
L136.3805 96.3724
" />
<path d="M136.3805 96.3724
L136.5233 96.3248
" />
<path d="M136.5233 96.3248
L136.7138 96.3248
" />
<path d="M136.7138 96.3248
L136.8567 96.3724
" />
<path d="M136.8567 96.3724
L136.9519 96.4677
" />
<path d="M136.9519 96.4677
L136.9995 96.6105
" />
<path d="M136.9995 96.6105
L136.9995 96.8486
" />
<path d="M136.9995 96.8486
L136.9519 96.9915
" />
<path d="M136.9519 96.9915
L136.8567 97.0867
" />
<path d="M136.8567 97.0867
L136.7614 97.1343
" />
<path d="M136.7614 97.1343
L136.7614 97.3248
" />
<path d="M136.7614 97.3248
L136.9995 97.3248
" />
</g><g transform="rotate(-90.000000 150.9900 97.6900)">
<text x="150.9900" y="98.1900"
textLength="2.2024" font-size="1.3333" lengthAdjust="spacingAndGlyphs"
text-anchor="middle" opacity="0" stroke-opacity="0">R3</text>
</g>
<g class="stroked-text"><desc>R3</desc>
<path d="M151.4448 97.8567
L150.9686 98.1900
" />
<path d="M151.4448 98.4281
L150.4448 98.4281
" />
<path d="M150.4448 98.4281
L150.4448 98.0471
" />
<path d="M150.4448 98.0471
L150.4924 97.9519
" />
<path d="M150.4924 97.9519
L150.5401 97.9043
" />
<path d="M150.5401 97.9043
L150.6353 97.8567
" />
<path d="M150.6353 97.8567
L150.7782 97.8567
" />
<path d="M150.7782 97.8567
L150.8734 97.9043
" />
<path d="M150.8734 97.9043
L150.9210 97.9519
" />
<path d="M150.9210 97.9519
L150.9686 98.0471
" />
<path d="M150.9686 98.0471
L150.9686 98.4281
" />
<path d="M150.4448 97.5233
L150.4448 96.9043
" />
<path d="M150.4448 96.9043
L150.8258 97.2376
" />
<path d="M150.8258 97.2376
L150.8258 97.0948
" />
<path d="M150.8258 97.0948
L150.8734 96.9995
" />
<path d="M150.8734 96.9995
L150.9210 96.9519
" />
<path d="M150.9210 96.9519
L151.0162 96.9043
" />
<path d="M151.0162 96.9043
L151.2543 96.9043
" />
<path d="M151.2543 96.9043
L151.3496 96.9519
" />
<path d="M151.3496 96.9519
L151.3972 96.9995
" />
<path d="M151.3972 96.9995
L151.4448 97.0948
" />
<path d="M151.4448 97.0948
L151.4448 97.3805
" />
<path d="M151.4448 97.3805
L151.3972 97.4757
" />
<path d="M151.3972 97.4757
L151.3496 97.5233
" />
</g><g transform="rotate(-90.000000 156.2500 97.6900)">
<text x="156.2500" y="98.1900"
textLength="4.2500" font-size="1.3333" lengthAdjust="spacingAndGlyphs"
text-anchor="middle" opacity="0" stroke-opacity="0">330Ω</text>
</g>
<g class="stroked-text"><desc>330Ω</desc>
<path d="M155.7048 99.5471
L155.7048 98.9281
" />
<path d="M155.7048 98.9281
L156.0858 99.2614
" />
<path d="M156.0858 99.2614
L156.0858 99.1186
" />
<path d="M156.0858 99.1186
L156.1334 99.0233
" />
<path d="M156.1334 99.0233
L156.1810 98.9757
" />
<path d="M156.1810 98.9757
L156.2762 98.9281
" />
<path d="M156.2762 98.9281
L156.5143 98.9281
" />
<path d="M156.5143 98.9281
L156.6096 98.9757
" />
<path d="M156.6096 98.9757
L156.6572 99.0233
" />
<path d="M156.6572 99.0233
L156.7048 99.1186
" />
<path d="M156.7048 99.1186
L156.7048 99.4043
" />
<path d="M156.7048 99.4043
L156.6572 99.4995
" />
<path d="M156.6572 99.4995
L156.6096 99.5471
" />
<path d="M155.7048 98.5948
L155.7048 97.9757
" />
<path d="M155.7048 97.9757
L156.0858 98.3090
" />
<path d="M156.0858 98.3090
L156.0858 98.1662
" />
<path d="M156.0858 98.1662
L156.1334 98.0710
" />
<path d="M156.1334 98.0710
L156.1810 98.0233
" />
<path d="M156.1810 98.0233
L156.2762 97.9757
" />
<path d="M156.2762 97.9757
L156.5143 97.9757
" />
<path d="M156.5143 97.9757
L156.6096 98.0233
" />
<path d="M156.6096 98.0233
L156.6572 98.0710
" />
<path d="M156.6572 98.0710
L156.7048 98.1662
" />
<path d="M156.7048 98.1662
L156.7048 98.4519
" />
<path d="M156.7048 98.4519
L156.6572 98.5471
" />
<path d="M156.6572 98.5471
L156.6096 98.5948
" />
<path d="M155.7048 97.3567
L155.7048 97.2614
" />
<path d="M155.7048 97.2614
L155.7524 97.1662
" />
<path d="M155.7524 97.1662
L155.8001 97.1186
" />
<path d="M155.8001 97.1186
L155.8953 97.0710
" />
<path d="M155.8953 97.0710
L156.0858 97.0233
" />
<path d="M156.0858 97.0233
L156.3239 97.0233
" />
<path d="M156.3239 97.0233
L156.5143 97.0710
" />
<path d="M156.5143 97.0710
L156.6096 97.1186
" />
<path d="M156.6096 97.1186
L156.6572 97.1662
" />
<path d="M156.6572 97.1662
L156.7048 97.2614
" />
<path d="M156.7048 97.2614
L156.7048 97.3567
" />
<path d="M156.7048 97.3567
L156.6572 97.4519
" />
<path d="M156.6572 97.4519
L156.6096 97.4995
" />
<path d="M156.6096 97.4995
L156.5143 97.5471
" />
<path d="M156.5143 97.5471
L156.3239 97.5948
" />
<path d="M156.3239 97.5948
L156.0858 97.5948
" />
<path d="M156.0858 97.5948
L155.8953 97.5471
" />
<path d="M155.8953 97.5471
L155.8001 97.4995
" />
<path d="M155.8001 97.4995
L155.7524 97.4519
" />
<path d="M155.7524 97.4519
L155.7048 97.3567
" />
<path d="M156.7048 96.6424
L156.7048 96.4043
" />
<path d="M156.7048 96.4043
L156.5143 96.4043
" />
<path d="M156.5143 96.4043
L156.4667 96.4995
" />
<path d="M156.4667 96.4995
L156.3715 96.5948
" />
<path d="M156.3715 96.5948
L156.2286 96.6424
" />
<path d="M156.2286 96.6424
L155.9905 96.6424
" />
<path d="M155.9905 96.6424
L155.8477 96.5948
" />
<path d="M155.8477 96.5948
L155.7524 96.4995
" />
<path d="M155.7524 96.4995
L155.7048 96.3567
" />
<path d="M155.7048 96.3567
L155.7048 96.1662
" />
<path d="M155.7048 96.1662
L155.7524 96.0233
" />
<path d="M155.7524 96.0233
L155.8477 95.9281
" />
<path d="M155.8477 95.9281
L155.9905 95.8805
" />
<path d="M155.9905 95.8805
L156.2286 95.8805
" />
<path d="M156.2286 95.8805
L156.3715 95.9281
" />
<path d="M156.3715 95.9281
L156.4667 96.0233
" />
<path d="M156.4667 96.0233
L156.5143 96.1186
" />
<path d="M156.5143 96.1186
L156.7048 96.1186
" />
<path d="M156.7048 96.1186
L156.7048 95.8805
" />
</g><text x="133.0000" y="81.5000"
textLength="2.2024" font-size="1.3333" lengthAdjust="spacingAndGlyphs"
text-anchor="middle" opacity="0" stroke-opacity="0">D1</text>
<g class="stroked-text"><desc>D1</desc>
<path d="M132.2619 81.4548
L132.2619 80.4548
" />
<path d="M132.2619 80.4548
L132.5000 80.4548
" />
<path d="M132.5000 80.4548
L132.6429 80.5024
" />
<path d="M132.6429 80.5024
L132.7381 80.5977
" />
<path d="M132.7381 80.5977
L132.7857 80.6929
" />
<path d="M132.7857 80.6929
L132.8333 80.8834
" />
<path d="M132.8333 80.8834
L132.8333 81.0262
" />
<path d="M132.8333 81.0262
L132.7857 81.2167
" />
<path d="M132.7857 81.2167
L132.7381 81.3120
" />
<path d="M132.7381 81.3120
L132.6429 81.4072
" />
<path d="M132.6429 81.4072
L132.5000 81.4548
" />
<path d="M132.5000 81.4548
L132.2619 81.4548
" />
<path d="M133.7857 81.4548
L133.2143 81.4548
" />
<path d="M133.5000 81.4548
L133.5000 80.4548
" />
<path d="M133.5000 80.4548
L133.4048 80.5977
" />
<path d="M133.4048 80.5977
L133.3095 80.6929
" />
<path d="M133.3095 80.6929
L133.2143 80.7405
" />
</g><g transform="rotate(-90.000000 127.8764 86.2743)">
<text x="127.8764" y="86.7743"
textLength="5.7262" font-size="1.3333" lengthAdjust="spacingAndGlyphs"
text-anchor="middle" opacity="0" stroke-opacity="0">RG LED</text>
</g>
<g class="stroked-text"><desc>RG LED</desc>
<path d="M128.3312 88.2029
L127.8550 88.5362
" />
<path d="M128.3312 88.7743
L127.3312 88.7743
" />
<path d="M127.3312 88.7743
L127.3312 88.3934
" />
<path d="M127.3312 88.3934
L127.3788 88.2981
" />
<path d="M127.3788 88.2981
L127.4264 88.2505
" />
<path d="M127.4264 88.2505
L127.5217 88.2029
" />
<path d="M127.5217 88.2029
L127.6645 88.2029
" />
<path d="M127.6645 88.2029
L127.7597 88.2505
" />
<path d="M127.7597 88.2505
L127.8074 88.2981
" />
<path d="M127.8074 88.2981
L127.8550 88.3934
" />
<path d="M127.8550 88.3934
L127.8550 88.7743
" />
<path d="M127.3788 87.2505
L127.3312 87.3458
" />
<path d="M127.3312 87.3458
L127.3312 87.4886
" />
<path d="M127.3312 87.4886
L127.3788 87.6315
" />
<path d="M127.3788 87.6315
L127.4740 87.7267
" />
<path d="M127.4740 87.7267
L127.5693 87.7743
" />
<path d="M127.5693 87.7743
L127.7597 87.8220
" />
<path d="M127.7597 87.8220
L127.9026 87.8220
" />
<path d="M127.9026 87.8220
L128.0931 87.7743
" />
<path d="M128.0931 87.7743
L128.1883 87.7267
" />
<path d="M128.1883 87.7267
L128.2836 87.6315
" />
<path d="M128.2836 87.6315
L128.3312 87.4886
" />
<path d="M128.3312 87.4886
L128.3312 87.3934
" />
<path d="M128.3312 87.3934
L128.2836 87.2505
" />
<path d="M128.2836 87.2505
L128.2359 87.2029
" />
<path d="M128.2359 87.2029
L127.9026 87.2029
" />
<path d="M127.9026 87.2029
L127.9026 87.3934
" />
<path d="M128.3312 85.5362
L128.3312 86.0124
" />
<path d="M128.3312 86.0124
L127.3312 86.0124
" />
<path d="M127.8074 85.2029
L127.8074 84.8696
" />
<path d="M128.3312 84.7267
L128.3312 85.2029
" />
<path d="M128.3312 85.2029
L127.3312 85.2029
" />
<path d="M127.3312 85.2029
L127.3312 84.7267
" />
<path d="M128.3312 84.2981
L127.3312 84.2981
" />
<path d="M127.3312 84.2981
L127.3312 84.0600
" />
<path d="M127.3312 84.0600
L127.3788 83.9172
" />
<path d="M127.3788 83.9172
L127.4740 83.8220
" />
<path d="M127.4740 83.8220
L127.5693 83.7743
" />
<path d="M127.5693 83.7743
L127.7597 83.7267
" />
<path d="M127.7597 83.7267
L127.9026 83.7267
" />
<path d="M127.9026 83.7267
L128.0931 83.7743
" />
<path d="M128.0931 83.7743
L128.1883 83.8220
" />
<path d="M128.1883 83.8220
L128.2836 83.9172
" />
<path d="M128.2836 83.9172
L128.3312 84.0600
" />
<path d="M128.3312 84.0600
L128.3312 84.2981
" />
</g></g>
<g style="fill:none; 
stroke:#000000; stroke-width:0.1200; stroke-opacity:1; 
stroke-linecap:round; stroke-linejoin:round;">
<path d="M159.5100 94.4200
L159.8400 94.4200
" />
<path d="M159.5100 100.9600
L159.5100 94.4200
" />
<path d="M159.8400 100.9600
L159.5100 100.9600
" />
<path d="M161.9200 100.9600
L162.2500 100.9600
" />
<path d="M162.2500 94.4200
L161.9200 94.4200
" />
<path d="M162.2500 100.9600
L162.2500 94.4200
" />
<path d="M122.6200 88.6200
L124.0000 88.6200
" />
<path d="M122.6200 90.0000
L122.6200 88.6200
" />
<path d="M122.6200 91.2700
L122.6200 106.6200
" />
<path d="M122.6200 91.2700
L125.3800 91.2700
" />
<path d="M122.6200 106.6200
L125.3800 106.6200
" />
<path d="M125.3800 91.2700
L125.3800 106.6200
" />
<path d="M131.9200 99.6300
L138.4600 99.6300
" />
<path d="M131.9200 99.9600
L131.9200 99.6300
" />
<path d="M131.9200 102.0400
L131.9200 102.3700
" />
<path d="M131.9200 102.3700
L138.4600 102.3700
" />
<path d="M138.4600 99.6300
L138.4600 99.9600
" />
<path d="M138.4600 102.3700
L138.4600 102.0400
" />
<path d="M144.0100 94.5400
L144.0100 101.0800
" />
<path d="M144.0100 101.0800
L144.3400 101.0800
" />
<path d="M144.3400 94.5400
L144.0100 94.5400
" />
<path d="M146.4200 94.5400
L146.7500 94.5400
" />
<path d="M146.7500 94.5400
L146.7500 101.0800
" />
<path d="M146.7500 101.0800
L146.4200 101.0800
" />
<path d="M146.3395 111.9462
L149.3895 111.9462
" />
<path d="M146.3395 116.2462
L149.3895 116.2462
" />
<path d="M146.3613 111.9307 A2.6505 2.6505 0.0 0 0 146.3395 116.2462" />
<path d="M149.4340 116.2144 A2.6215 2.6215 0.0 0 0 149.3895 111.9462" />
<path d="M168.5717 91.9244
L176.6117 91.9244
" />
<path d="M168.5717 102.6644
L168.5717 91.9244
" />
<path d="M172.1917 92.7324
L172.1917 91.9244
" />
<path d="M172.1917 97.6644
L172.1917 96.3564
" />
<path d="M172.1917 102.6644
L172.1917 101.4244
" />
<path d="M173.1917 92.7324
L173.1917 91.9244
" />
<path d="M173.1917 97.6644
L173.1917 96.3564
" />
<path d="M173.1917 102.6644
L173.1917 101.4244
" />
<path d="M174.4917 94.0014
L174.4917 91.9244
" />
<path d="M174.4917 97.6644
L174.4917 95.0874
" />
<path d="M174.4917 102.6644
L174.4917 101.4244
" />
<path d="M176.6117 91.9244
L176.6117 99.2444
" />
<path d="M176.6117 99.8444
L176.6117 102.6644
" />
<path d="M176.6117 102.6644
L168.5717 102.6644
" />
<path style="fill:none; 
stroke:#000000; stroke-width:0.1200; stroke-opacity:1; 
stroke-linecap:round; stroke-linejoin:round;fill:none"
d="M 176.6117,99.5444
177.2217,99.1044
177.2217,99.9844
Z" /> 
<path style="fill:#000000; fill-opacity:1.0000; stroke:none;fill-rule:evenodd;"
d="M 177.2217,99.9844
176.6117,99.5444
177.2217,99.1044
Z" /> 
</g>
<g style="fill:none; 
stroke:#000000; stroke-width:0.1200; stroke-opacity:1; 
stroke-linecap:round; stroke-linejoin:round;">
<path d="M139.6500 82.2500
L139.6500 83.5000
" />
<path d="M139.9500 84.8000
L140.7000 84.8000
" />
<path d="M140.7000 84.8000
L140.7000 86.1400
" />
<path d="M140.9000 82.2500
L139.6500 82.2500
" />
<path d="M145.0000 87.7500
L141.7600 87.7500
" />
<path d="M149.3000 84.8000
L149.3000 87.7500
" />
<path d="M149.3000 87.7500
L145.0000 87.7500
" />
<path d="M150.0500 84.8000
L149.3000 84.8000
" />
<path style="fill:none; 
stroke:#000000; stroke-width:0.1200; stroke-opacity:1; 
stroke-linecap:round; stroke-linejoin:round;fill:none"
d="M 139.9400,82.5400
150.0600,82.5400
150.0600,88.5100
139.9400,88.5100
Z" /> 
<path style="fill:none; 
stroke:#000000; stroke-width:0.1200; stroke-opacity:1; 
stroke-linecap:round; stroke-linejoin:round;fill:none"
d="M 139.9500,82.5500
141.7500,82.5500
141.7500,83.3000
139.9500,83.3000
Z" /> 
<path style="fill:none; 
stroke:#000000; stroke-width:0.1200; stroke-opacity:1; 
stroke-linecap:round; stroke-linejoin:round;fill:none"
d="M 143.2500,82.5500
146.7500,82.5500
146.7500,83.3000
143.2500,83.3000
Z" /> 
<path style="fill:none; 
stroke:#000000; stroke-width:0.1200; stroke-opacity:1; 
stroke-linecap:round; stroke-linejoin:round;fill:none"
d="M 148.2500,82.5500
150.0500,82.5500
150.0500,83.3000
148.2500,83.3000
Z" /> 
<path d="M159.2500 85.0000
L159.2500 86.5000
" />
<path d="M160.5000 89.0000
L165.0000 89.0000
" />
<path d="M165.0000 82.5000
L160.5000 82.5000
" />
<path d="M166.2500 86.5000
L166.2500 85.0000
" />
<path d="M131.9200 93.1300
L138.4600 93.1300
" />
<path d="M131.9200 93.4600
L131.9200 93.1300
" />
<path d="M131.9200 95.5400
L131.9200 95.8700
" />
<path d="M131.9200 95.8700
L138.4600 95.8700
" />
<path d="M138.4600 93.1300
L138.4600 93.4600
" />
<path d="M138.4600 95.8700
L138.4600 95.5400
" />
<path d="M152.2500 94.4200
L152.2500 100.9600
" />
<path d="M152.2500 100.9600
L152.5800 100.9600
" />
<path d="M152.5800 94.4200
L152.2500 94.4200
" />
<path d="M154.6600 94.4200
L154.9900 94.4200
" />
<path d="M154.9900 94.4200
L154.9900 100.9600
" />
<path d="M154.9900 100.9600
L154.6600 100.9600
" />
<path d="M129.9000 84.4550
L129.9000 84.9200
" />
<path d="M129.9000 87.0800
L129.9000 87.5450
" />
<path d="M135.2481 84.9200 A2.9900 2.9900 0.0 0 0 129.9000 84.4552" />
<path d="M134.7147 84.9200 A2.5000 2.5000 0.0 0 0 130.2053 84.9200" />
<path d="M130.2053 87.0800 A2.5000 2.5000 0.0 0 0 134.7147 87.0800" />
<path d="M129.9000 87.5448 A2.9900 2.9900 0.0 0 0 135.2481 87.0800" />
</g> 
</svg>
