%TF.GenerationSoftware,KiCad,Pcbnew,10.0.2*%
%TF.CreationDate,2026-06-04T11:42:37+05:30*%
%TF.ProjectId,esp32-laser-security,65737033-322d-46c6-9173-65722d736563,rev?*%
%TF.SameCoordinates,Original*%
%TF.FileFunction,Soldermask,Bot*%
%TF.FilePolarity,Negative*%
%FSLAX46Y46*%
G04 Gerber Fmt 4.6, Leading zero omitted, Abs format (unit mm)*
G04 Created by KiCad (PCBNEW 10.0.2) date 2026-06-04 11:42:37*
%MOMM*%
%LPD*%
G01*
G04 APERTURE LIST*
%ADD10C,2.000000*%
%ADD11C,1.500000*%
%ADD12R,1.700000X1.700000*%
%ADD13C,1.700000*%
%ADD14C,1.600000*%
%ADD15R,2.000000X2.000000*%
G04 APERTURE END LIST*
D10*
%TO.C,Reset_Button1*%
X1007750000Y90750000D03*
X1014250000Y90750000D03*
X1007750000Y86250000D03*
X1014250000Y86250000D03*
%TD*%
D11*
%TO.C,R1*%
X1009100000Y67000000D03*
X1012500000Y67000000D03*
%TD*%
D12*
%TO.C,ESP32_Right_Headers1*%
X996000000Y105040000D03*
D13*
X996000000Y102500000D03*
X996000000Y99960000D03*
X996000000Y97420000D03*
X996000000Y94880000D03*
X996000000Y92340000D03*
X996000000Y89800000D03*
X996000000Y87260000D03*
X996000000Y84720000D03*
X996000000Y82180000D03*
X996000000Y79640000D03*
X996000000Y77100000D03*
X996000000Y74560000D03*
X996000000Y72020000D03*
X996000000Y69480000D03*
%TD*%
D12*
%TO.C,ESP32_Left_Headers1*%
X980500000Y101500000D03*
D13*
X980500000Y98960000D03*
X980500000Y96420000D03*
X980500000Y93880000D03*
X980500000Y91340000D03*
X980500000Y88800000D03*
X980500000Y86260000D03*
X980500000Y83720000D03*
X980500000Y81180000D03*
X980500000Y78640000D03*
X980500000Y76100000D03*
X980500000Y73560000D03*
X980500000Y71020000D03*
X980500000Y68480000D03*
X980500000Y65940000D03*
%TD*%
D14*
%TO.C,10k_ohm1*%
X1007190000Y75000000D03*
X1014810000Y75000000D03*
%TD*%
D15*
%TO.C,BZ1*%
X1008200000Y109500000D03*
D10*
X1015800000Y109500000D03*
%TD*%
M02*
